<svg width="1377" height="824" viewBox="0 0 1377 824" fill="none" xmlns="http://www.w3.org/2000/svg">
<path d="M1079.93 800.011C1079.96 799.967 1079.99 799.929 1080.04 799.899C1080.08 799.87 1080.13 799.851 1080.18 799.842C1080.23 799.834 1080.28 799.836 1080.33 799.85C1080.38 799.863 1080.42 799.888 1080.46 799.921L1082.88 801.931C1082.9 801.95 1082.91 801.972 1082.92 801.995C1082.92 802.018 1082.92 802.041 1082.91 802.061C1077.54 813.448 1069 820.421 1057.29 822.981C1052.46 824.041 1044.21 824.141 1039.22 823.221C999.254 815.901 996.284 759.721 1025.49 738.741C1032.61 733.634 1040.68 731.341 1049.7 731.861C1059.43 732.431 1068.53 734.611 1075.65 740.731C1081.48 745.731 1079.84 755.311 1080.42 761.641C1080.43 761.71 1080.42 761.779 1080.4 761.844C1080.38 761.91 1080.35 761.97 1080.3 762.021C1080.26 762.072 1080.2 762.112 1080.14 762.14C1080.08 762.168 1080.01 762.182 1079.94 762.181L1077.83 762.201C1077.68 762.201 1077.54 762.147 1077.42 762.05C1077.31 761.952 1077.24 761.818 1077.21 761.671C1076.29 756.064 1074.33 751.135 1071.31 746.881C1064.13 736.731 1049.74 735.451 1038.82 739.571C1027.62 743.791 1022.02 755.221 1020.34 766.581C1018.59 778.471 1018.98 792.291 1025.11 803.161C1030.77 813.194 1039.29 818.221 1050.68 818.241C1063.84 818.261 1073.5 811.011 1079.93 800.011Z" fill="#01476B"/>
<path d="M0.0134109 820.941L36.4834 735.001C36.5603 734.819 36.6895 734.665 36.8549 734.556C37.0204 734.448 37.2147 734.39 37.4134 734.391H40.1234C40.3598 734.39 40.5913 734.46 40.7888 734.592C40.9862 734.724 41.1409 734.911 41.2334 735.131C57.7534 775.337 67.6134 799.301 70.8134 807.021C73.2934 812.991 76.7834 817.561 83.6434 818.191C83.8245 818.208 83.9926 818.292 84.1146 818.425C84.2367 818.558 84.304 818.731 84.3034 818.911V820.071C84.3032 820.464 84.1572 820.843 83.8935 821.137C83.6297 821.43 83.2666 821.616 82.8734 821.661C70.9134 822.974 62.4601 818.291 57.5134 807.611C56.9201 806.337 55.4968 802.711 53.2434 796.731C53.1848 796.578 53.0817 796.446 52.9478 796.353C52.8139 796.26 52.6554 796.211 52.4934 796.211H17.3534C17.194 796.21 17.0378 796.258 16.9044 796.347C16.771 796.436 16.6663 796.562 16.6034 796.711L6.30342 820.961C6.27381 821.032 6.22381 821.092 6.15974 821.135C6.09568 821.178 6.02041 821.201 5.94342 821.201H0.183409C0.152976 821.2 0.123252 821.191 0.0967239 821.176C0.0701954 821.161 0.0476383 821.14 0.0309738 821.115C0.0143093 821.089 0.00401676 821.06 0.000959774 821.03C-0.00209722 821 0.00217369 820.969 0.0134109 820.941ZM19.0434 790.281C19.02 790.332 19.01 790.389 19.0142 790.446C19.0184 790.503 19.0368 790.557 19.0676 790.605C19.0985 790.653 19.1408 790.692 19.1907 790.719C19.2406 790.746 19.2966 790.761 19.3534 790.761L49.9034 790.971C49.959 790.97 50.0135 790.956 50.0623 790.929C50.111 790.902 50.1525 790.864 50.1831 790.818C50.2137 790.772 50.2324 790.718 50.2377 790.663C50.243 790.608 50.2347 790.552 50.2134 790.501L35.1934 754.221C35.1675 754.16 35.1248 754.109 35.0703 754.073C35.0159 754.036 34.9521 754.016 34.8866 754.015C34.8212 754.014 34.7568 754.032 34.7012 754.067C34.6456 754.101 34.6013 754.151 34.5734 754.211L19.0434 790.281Z" fill="#01476B"/>
<path d="M366.603 734.441C370.703 734.394 374.903 734.398 379.203 734.451C388.063 734.561 390.013 739.221 390.013 747.421C390.007 773.448 390.007 797.837 390.013 820.591C390.013 820.755 389.948 820.913 389.832 821.029C389.715 821.146 389.558 821.211 389.393 821.211H378.653C378.454 821.211 378.264 821.132 378.123 820.991C377.982 820.851 377.903 820.66 377.903 820.461C377.917 775.294 377.913 750.804 377.893 746.991C377.893 746.751 377.603 745.374 377.023 742.861C375.773 737.421 371.253 737.331 366.653 737.431C366.583 737.432 366.513 737.419 366.447 737.393C366.382 737.367 366.322 737.329 366.272 737.279C366.222 737.23 366.182 737.171 366.155 737.106C366.127 737.041 366.113 736.971 366.113 736.901V734.941C366.113 734.81 366.165 734.684 366.256 734.591C366.348 734.497 366.472 734.443 366.603 734.441Z" fill="#01476B"/>
<path d="M616.753 816.86C616.85 816.847 616.949 816.855 617.043 816.884C617.136 816.913 617.223 816.962 617.296 817.027C617.37 817.092 617.429 817.173 617.47 817.263C617.511 817.353 617.533 817.451 617.533 817.55V820.44C617.533 820.642 617.453 820.837 617.308 820.981C617.164 821.125 616.969 821.207 616.763 821.21C605.843 821.29 599.66 821.227 598.213 821.02C591.863 820.11 589.753 814.79 589.743 809.14C589.683 786.153 589.673 761.453 589.713 735.04C589.713 734.875 589.78 734.718 589.898 734.602C590.016 734.485 590.176 734.42 590.343 734.42H606.313C606.502 734.42 606.682 734.495 606.816 734.628C606.949 734.761 607.023 734.942 607.023 735.13C606.997 776.37 606.993 799.797 607.013 805.41C607.023 811.76 608.923 817.81 616.753 816.86Z" fill="#01476B"/>
<path d="M678.934 738.791C678.836 738.805 678.736 738.798 678.641 738.77C678.547 738.742 678.459 738.693 678.384 738.628C678.309 738.562 678.249 738.482 678.207 738.391C678.166 738.3 678.144 738.201 678.144 738.101V735.21C678.144 735.008 678.224 734.814 678.369 734.67C678.513 734.525 678.708 734.443 678.914 734.441C689.834 734.361 696.017 734.421 697.464 734.621C703.814 735.531 705.934 740.851 705.944 746.501C706.017 769.487 706.04 794.187 706.014 820.601C706.014 820.765 705.947 820.923 705.829 821.039C705.711 821.155 705.551 821.221 705.384 821.221L689.414 821.231C689.225 821.231 689.045 821.156 688.911 821.023C688.778 820.889 688.704 820.709 688.704 820.52C688.71 779.28 688.7 755.854 688.674 750.241C688.664 743.891 686.754 737.841 678.934 738.791Z" fill="#01476B"/>
<path d="M911.114 737.992C907.572 734.234 901.961 733.77 898.581 736.955C895.201 740.14 895.331 745.769 898.873 749.527C902.414 753.285 908.025 753.75 911.406 750.564C914.786 747.379 914.655 741.75 911.114 737.992Z" fill="#01476B"/>
<path d="M421.207 740.969C418.94 737.37 414.599 736.03 411.51 737.976C408.421 739.921 407.754 744.415 410.02 748.014C412.286 751.612 416.627 752.952 419.716 751.007C422.805 749.062 423.473 744.568 421.207 740.969Z" fill="#01476B"/>
<path d="M212.103 759.421H220.033C220.206 759.421 220.371 759.353 220.493 759.231C220.615 759.109 220.684 758.944 220.684 758.771V748.111C220.683 747.763 220.807 747.426 221.033 747.161L226.923 740.091C227.049 739.941 227.206 739.82 227.382 739.737C227.558 739.654 227.75 739.611 227.943 739.611H232.113C232.283 739.611 232.446 739.679 232.566 739.799C232.686 739.919 232.753 740.082 232.753 740.251V758.921C232.753 759.051 232.805 759.176 232.897 759.268C232.989 759.36 233.114 759.411 233.243 759.411H248.033C248.166 759.411 248.293 759.465 248.387 759.561C248.481 759.656 248.533 759.786 248.533 759.921V764.491C248.533 764.621 248.483 764.746 248.393 764.838C248.303 764.93 248.181 764.981 248.053 764.981H233.353C233.192 764.981 233.037 765.046 232.922 765.16C232.808 765.274 232.743 765.43 232.743 765.591C232.75 786.038 232.753 799.205 232.753 805.091C232.743 812.011 235.064 817.261 242.904 816.921C245.777 816.795 248.373 816.071 250.693 814.751C250.921 814.622 251.189 814.579 251.446 814.63C251.703 814.682 251.933 814.824 252.094 815.031L252.733 815.871C252.848 816.019 252.931 816.188 252.978 816.369C253.026 816.55 253.036 816.738 253.009 816.923C252.982 817.108 252.918 817.285 252.821 817.445C252.724 817.604 252.595 817.743 252.443 817.851C248.223 820.898 243.24 822.455 237.493 822.521C227.293 822.651 220.843 817.271 220.763 806.901C220.69 797.841 220.67 784.061 220.703 765.561C220.703 765.405 220.641 765.255 220.531 765.144C220.42 765.033 220.27 764.971 220.113 764.971H212.103C211.96 764.971 211.823 764.914 211.722 764.813C211.62 764.712 211.563 764.575 211.563 764.431V759.961C211.563 759.818 211.62 759.681 211.722 759.579C211.823 759.478 211.96 759.421 212.103 759.421Z" fill="#01476B"/>
<path d="M1225.28 764.431V759.961C1225.28 759.818 1225.34 759.68 1225.44 759.579C1225.54 759.478 1225.68 759.421 1225.82 759.421H1233.74C1233.92 759.421 1234.08 759.353 1234.2 759.231C1234.32 759.109 1234.39 758.943 1234.39 758.771V748.121C1234.39 747.773 1234.52 747.436 1234.74 747.171L1240.62 740.101C1240.75 739.953 1240.91 739.833 1241.08 739.752C1241.26 739.671 1241.45 739.63 1241.64 739.631L1245.81 739.621C1245.98 739.621 1246.15 739.689 1246.27 739.809C1246.39 739.929 1246.45 740.091 1246.45 740.261V758.921C1246.45 759.051 1246.5 759.176 1246.6 759.268C1246.69 759.359 1246.81 759.411 1246.94 759.411H1261.72C1261.86 759.411 1261.98 759.465 1262.08 759.56C1262.17 759.656 1262.22 759.786 1262.22 759.921V764.491C1262.22 764.621 1262.17 764.746 1262.08 764.838C1261.99 764.929 1261.87 764.981 1261.74 764.981H1247.05C1246.89 764.981 1246.74 765.045 1246.62 765.16C1246.51 765.274 1246.44 765.429 1246.44 765.591C1246.45 786.024 1246.46 799.181 1246.46 805.061C1246.45 811.981 1248.77 817.221 1256.6 816.881C1259.48 816.754 1262.07 816.031 1264.38 814.711C1264.61 814.58 1264.88 814.536 1265.13 814.588C1265.39 814.639 1265.62 814.783 1265.78 814.991L1266.42 815.831C1266.54 815.979 1266.62 816.148 1266.67 816.329C1266.72 816.509 1266.73 816.698 1266.7 816.883C1266.67 817.068 1266.61 817.245 1266.51 817.404C1266.41 817.564 1266.29 817.702 1266.13 817.811C1261.92 820.858 1256.94 822.414 1251.19 822.481C1241 822.611 1234.55 817.231 1234.47 806.871C1234.4 797.818 1234.38 784.048 1234.41 765.561C1234.41 765.484 1234.4 765.407 1234.37 765.335C1234.34 765.264 1234.3 765.199 1234.24 765.144C1234.19 765.089 1234.12 765.046 1234.05 765.016C1233.98 764.986 1233.9 764.971 1233.82 764.971H1225.82C1225.68 764.971 1225.54 764.914 1225.44 764.813C1225.34 764.712 1225.28 764.574 1225.28 764.431Z" fill="#01476B"/>
<path d="M157.333 803.101H158.943C159.136 803.101 159.323 803.166 159.474 803.286C159.625 803.406 159.73 803.574 159.773 803.761C161.62 811.881 166.77 816.235 175.223 816.821C180.443 817.181 187.063 816.931 190.513 812.571C193.213 809.161 192.393 804.361 189.303 801.551C182.183 795.081 171.173 794.601 161.993 786.881C154.893 780.901 155.093 769.521 161.843 763.331C164.877 760.551 169.083 758.885 174.463 758.331C183.283 757.421 201.503 758.231 201.383 770.631C201.383 770.678 201.477 772.428 201.663 775.881C201.679 776.269 201.55 776.648 201.302 776.947C201.054 777.245 200.705 777.441 200.321 777.497C199.937 777.552 199.546 777.464 199.224 777.249C198.901 777.034 198.669 776.707 198.573 776.331C196.68 768.438 191.557 764.231 183.203 763.711C180.443 763.545 177.837 763.751 175.383 764.331C169.883 765.651 166.373 771.281 169.373 776.541C170.58 778.655 172.817 780.581 176.083 782.321C182.693 785.841 200.023 789.991 202.753 799.841C205.803 810.831 199.743 819.531 188.913 821.581C181.007 823.088 173.43 822.801 166.183 820.721C161.55 819.388 158.553 816.575 157.193 812.281C157.147 812.129 157.12 811.971 157.113 811.811L156.753 803.701C156.749 803.624 156.761 803.547 156.789 803.474C156.816 803.401 156.858 803.335 156.912 803.279C156.967 803.223 157.032 803.178 157.104 803.148C157.177 803.117 157.255 803.101 157.333 803.101Z" fill="#01476B"/>
<path d="M274.763 764.661C274.799 764.739 274.854 764.807 274.923 764.859C274.991 764.91 275.072 764.945 275.157 764.959C275.243 764.972 275.331 764.965 275.414 764.938C275.497 764.91 275.572 764.863 275.633 764.801C280.733 759.421 286.983 757.237 294.383 758.251C298.843 758.861 301.823 761.791 303.563 765.601C303.629 765.747 303.644 765.91 303.606 766.064C303.568 766.219 303.479 766.355 303.353 766.451L298.833 769.931C298.718 770.02 298.574 770.064 298.429 770.054C298.284 770.045 298.147 769.983 298.043 769.881C291.993 763.851 281.283 765.421 276.093 772.051C275.853 772.362 275.723 772.745 275.723 773.141L275.713 820.781C275.713 820.895 275.668 821.004 275.587 821.085C275.507 821.165 275.397 821.211 275.283 821.211H263.763C263.663 821.211 263.566 821.172 263.495 821.102C263.423 821.033 263.383 820.939 263.383 820.841C263.397 795.967 263.397 780.077 263.383 773.171C263.383 766.541 261.213 761.921 253.643 762.211C253.563 762.215 253.483 762.203 253.408 762.175C253.333 762.147 253.265 762.104 253.207 762.049C253.149 761.994 253.103 761.927 253.071 761.854C253.04 761.78 253.023 761.701 253.023 761.621V760.001C253.023 759.866 253.077 759.737 253.172 759.64C253.267 759.543 253.396 759.486 253.533 759.481C258.46 759.347 262.9 759.371 266.853 759.551C270.593 759.711 273.23 761.414 274.763 764.661Z" fill="#01476B"/>
<path d="M313.434 774.04C313.427 770.173 313.777 767.413 314.484 765.76C318.184 757.04 336.324 757.44 344.084 758.77C355.454 760.71 359.374 772.43 359.474 782.43C359.547 789.67 359.557 802.36 359.504 820.5C359.504 820.688 359.43 820.869 359.299 821.002C359.168 821.135 358.989 821.21 358.804 821.21H353.194C353.032 821.21 352.872 821.172 352.727 821.099C352.581 821.026 352.453 820.92 352.354 820.79L348.264 815.48C348.228 815.435 348.184 815.399 348.133 815.373C348.083 815.347 348.027 815.332 347.971 815.329C347.914 815.326 347.857 815.336 347.804 815.357C347.751 815.377 347.703 815.409 347.664 815.45C342.164 821.28 335.434 822.79 327.584 822.37C316.144 821.76 309.214 813.36 310.264 801.72C311.464 788.35 330.014 785.6 340.214 785.64C341.947 785.647 344.157 785.637 346.844 785.61C346.989 785.607 347.127 785.548 347.23 785.443C347.333 785.339 347.391 785.198 347.394 785.05C347.574 777.99 346.324 766.37 338.424 764.32C330.104 762.16 321.894 764.73 319.794 774.11C319.753 774.286 319.654 774.444 319.512 774.556C319.37 774.669 319.195 774.73 319.014 774.73H314.124C313.941 774.73 313.765 774.657 313.636 774.528C313.506 774.398 313.434 774.223 313.434 774.04ZM346.734 791.23C343.721 791.077 340.967 791.133 338.474 791.4C331.054 792.2 322.184 796.35 322.964 805.17C323.204 807.85 324.07 810.157 325.564 812.09C328.664 816.12 335.624 817.4 339.964 815.44C342.764 814.173 345.17 811.927 347.184 808.7C347.368 808.408 347.465 808.072 347.464 807.73L347.374 791.89C347.371 791.719 347.304 791.556 347.185 791.433C347.066 791.31 346.905 791.238 346.734 791.23Z" fill="#01476B"/>
<path d="M441.023 774.74C440.932 774.74 440.843 774.722 440.759 774.687C440.675 774.653 440.599 774.602 440.535 774.538C440.471 774.474 440.42 774.398 440.385 774.314C440.351 774.23 440.333 774.14 440.333 774.05C440.326 770.177 440.676 767.413 441.383 765.76C445.073 757.03 463.233 757.42 470.993 758.75C482.373 760.68 486.303 772.41 486.413 782.42C486.486 789.66 486.503 802.357 486.463 820.51C486.463 820.698 486.389 820.879 486.258 821.012C486.127 821.145 485.949 821.22 485.763 821.22L480.143 821.23C479.981 821.23 479.821 821.192 479.676 821.119C479.53 821.046 479.403 820.94 479.303 820.81L475.213 815.5C475.178 815.455 475.133 815.419 475.083 815.393C475.032 815.367 474.977 815.352 474.92 815.349C474.863 815.346 474.806 815.356 474.753 815.376C474.7 815.397 474.653 815.429 474.613 815.47C469.113 821.3 462.373 822.82 454.523 822.4C443.073 821.8 436.133 813.4 437.173 801.75C438.373 788.37 456.933 785.61 467.133 785.64C468.873 785.646 471.086 785.637 473.773 785.61C473.918 785.607 474.056 785.547 474.159 785.443C474.262 785.338 474.32 785.198 474.323 785.05C474.503 777.98 473.243 766.35 465.333 764.31C457.003 762.15 448.793 764.73 446.693 774.11C446.652 774.286 446.553 774.443 446.411 774.556C446.27 774.669 446.094 774.73 445.913 774.73L441.023 774.74ZM473.753 791.26C470.733 791.093 467.973 791.136 465.473 791.39C458.033 792.14 449.123 796.25 449.853 805.1C450.073 807.787 450.926 810.103 452.413 812.05C455.503 816.1 462.463 817.43 466.823 815.49C469.636 814.237 472.063 812 474.103 808.78C474.292 808.486 474.393 808.146 474.393 807.8V791.93C474.393 791.757 474.327 791.591 474.207 791.466C474.088 791.342 473.925 791.268 473.753 791.26Z" fill="#01476B"/>
<path d="M518.444 764.241C524.831 758.741 532.751 756.884 542.204 758.671C552.594 760.631 557.604 769.531 557.664 779.681C557.738 791.361 557.751 804.987 557.704 820.561C557.704 820.733 557.636 820.899 557.514 821.02C557.392 821.142 557.227 821.211 557.054 821.211H546.324C546.167 821.211 546.016 821.15 545.903 821.042C545.791 820.933 545.727 820.786 545.724 820.631C545.624 815.304 545.618 802.987 545.704 783.681C545.744 776.181 544.304 768.211 536.504 765.171C529.774 762.551 523.444 765.771 518.894 770.701C518.618 771.003 518.464 771.395 518.464 771.801V820.491C518.464 820.684 518.387 820.87 518.25 821.007C518.113 821.144 517.928 821.221 517.734 821.221H507.004C506.923 821.221 506.843 821.204 506.768 821.173C506.694 821.141 506.626 821.094 506.569 821.036C506.513 820.977 506.468 820.908 506.438 820.831C506.408 820.755 506.393 820.673 506.394 820.591C506.421 819.431 506.428 804.461 506.414 775.681C506.414 771.981 505.814 768.634 504.614 765.641C503.354 762.501 498.144 761.991 495.174 762.271C495.087 762.278 495 762.267 494.917 762.239C494.835 762.211 494.76 762.166 494.696 762.108C494.632 762.05 494.581 761.979 494.546 761.9C494.511 761.822 494.494 761.737 494.494 761.651V760.061C494.494 759.906 494.556 759.757 494.666 759.647C494.777 759.537 494.927 759.473 495.084 759.471C501.658 759.371 506.507 759.394 509.634 759.541C513.254 759.714 515.904 761.231 517.584 764.091C517.626 764.163 517.683 764.225 517.751 764.272C517.819 764.32 517.897 764.352 517.979 764.366C518.061 764.38 518.145 764.377 518.226 764.355C518.306 764.333 518.381 764.294 518.444 764.241Z" fill="#01476B"/>
<path d="M625.534 801.111H629.154C629.307 801.111 629.455 801.164 629.573 801.261C629.69 801.358 629.768 801.492 629.794 801.641C631.944 813.391 640.454 817.661 651.434 815.901C657.107 814.994 659.774 811.731 659.434 806.111C659.084 800.451 640.974 794.411 637.494 792.641C635.407 791.581 632.991 790.018 630.244 787.951C623.784 783.101 622.414 774.351 626.284 767.501C632.144 757.141 649.664 757.201 660.024 758.871C662.357 759.244 664.754 760.018 667.214 761.191C674.214 764.521 673.414 770.671 673.624 778.631C673.627 778.707 673.614 778.784 673.586 778.855C673.558 778.927 673.516 778.992 673.461 779.047C673.407 779.102 673.342 779.146 673.271 779.176C673.199 779.205 673.122 779.221 673.044 779.221H669.474C669.317 779.221 669.164 779.171 669.037 779.08C668.91 778.989 668.814 778.859 668.764 778.711C668.164 776.938 667.814 775.908 667.714 775.621C665.401 768.808 660.907 765.044 654.234 764.331C646.894 763.541 640.014 766.111 641.124 774.791C641.554 778.141 646.264 780.891 648.924 781.971C654.694 784.311 663.174 787.541 669.444 791.941C675.097 795.914 677.234 801.401 675.854 808.401C673.914 818.181 662.314 821.871 652.954 822.351C644.724 822.771 626.904 822.821 625.344 811.581C624.971 808.901 624.831 805.608 624.924 801.701C624.927 801.543 624.992 801.393 625.106 801.283C625.22 801.173 625.374 801.111 625.534 801.111Z" fill="#01476B"/>
<path d="M755.134 784.28C755.464 774.5 752.994 762.24 739.984 764.47C734.074 765.48 731.044 770.39 730.134 775.8C730.124 775.845 730.099 775.887 730.063 775.916C730.026 775.945 729.98 775.96 729.934 775.96H722.594C722.557 775.96 722.521 775.952 722.488 775.937C722.454 775.923 722.425 775.9 722.401 775.873C722.377 775.845 722.36 775.813 722.35 775.778C722.34 775.742 722.338 775.706 722.344 775.67C722.55 774.47 722.754 772.31 722.954 769.19C723.334 763.41 727.434 760.18 733.194 759.14C740.327 757.853 746.704 757.673 752.324 758.6C767.284 761.06 772.564 771.61 772.664 786.17C772.744 798.583 772.747 810.146 772.674 820.86C772.674 820.952 772.637 821.041 772.571 821.107C772.505 821.173 772.416 821.21 772.324 821.21H761.714C761.546 821.21 761.38 821.171 761.229 821.097C761.078 821.022 760.946 820.914 760.844 820.78L756.864 815.61C756.817 815.551 756.759 815.504 756.692 815.471C756.626 815.438 756.553 815.42 756.478 815.418C756.404 815.416 756.33 815.431 756.262 815.46C756.194 815.49 756.133 815.534 756.084 815.59C753.11 818.983 750.134 821.003 747.154 821.65C740.72 823.056 734.597 822.726 728.784 820.66C722.944 818.58 718.324 812.75 718.004 806.2C717.604 797.87 720.254 791.59 728.244 788.42C736.374 785.2 745.924 784.68 754.514 784.87C754.674 784.872 754.828 784.812 754.944 784.702C755.06 784.591 755.128 784.44 755.134 784.28ZM754.564 791.24C744.284 790.58 735.434 793.67 736.004 805.83C736.324 812.73 740.854 817.71 747.944 814.91C750.95 813.723 753.287 811.353 754.954 807.8C755.079 807.523 755.144 807.223 755.144 806.92V791.85C755.144 791.693 755.084 791.542 754.976 791.428C754.868 791.315 754.72 791.247 754.564 791.24Z" fill="#01476B"/>
<path d="M779.694 759.471C786.594 759.338 791.884 759.378 795.564 759.591C799.017 759.791 801.63 761.201 803.404 763.821C803.445 763.883 803.498 763.936 803.56 763.976C803.622 764.017 803.692 764.044 803.766 764.056C803.839 764.068 803.914 764.065 803.986 764.047C804.058 764.029 804.125 763.996 804.184 763.951C808.354 760.751 812.854 758.501 818.154 758.111C825.94 757.551 832.617 759.801 838.184 764.861C838.298 764.964 838.447 765.021 838.601 765.019C838.755 765.017 838.902 764.957 839.014 764.851C843.154 760.991 847.374 758.641 853.064 758.221C870.594 756.921 880.354 764.151 880.284 782.281C880.257 790.121 880.251 802.971 880.264 820.831C880.264 820.932 880.224 821.028 880.153 821.1C880.081 821.171 879.985 821.211 879.884 821.211H863.264C863.174 821.211 863.087 821.174 863.023 821.109C862.96 821.043 862.924 820.954 862.924 820.861C862.904 813.448 862.9 800.134 862.914 780.921C862.914 776.411 862.064 770.511 858.684 767.391C853.864 762.921 846.244 765.051 841.994 769.281C841.885 769.389 841.809 769.527 841.772 769.678C841.735 769.829 841.739 769.989 841.784 770.141C842.904 773.641 843.467 776.318 843.474 778.171C843.507 787.818 843.514 802.044 843.494 820.851C843.494 820.947 843.456 821.038 843.388 821.106C843.321 821.173 843.229 821.211 843.134 821.211H826.764C826.599 821.211 826.442 821.147 826.325 821.032C826.209 820.918 826.144 820.763 826.144 820.601C826.144 794.848 826.144 781.288 826.144 779.921C826.174 767.491 817.714 759.481 806.544 769.451C806.403 769.577 806.296 769.735 806.233 769.912C806.17 770.089 806.153 770.278 806.184 770.461L806.994 775.381C807 775.434 807.004 775.488 807.004 775.541L807.014 820.601C807.014 820.763 806.95 820.918 806.835 821.032C806.721 821.147 806.566 821.211 806.404 821.211H790.044C789.951 821.211 789.862 821.174 789.796 821.109C789.731 821.043 789.694 820.954 789.694 820.861C789.714 813.808 789.714 799.328 789.694 777.421C789.687 775.854 789.54 773.911 789.254 771.591C788.494 765.581 785.714 763.361 779.754 763.761C779.674 763.767 779.595 763.756 779.52 763.729C779.444 763.702 779.376 763.66 779.318 763.606C779.259 763.552 779.213 763.486 779.181 763.413C779.15 763.34 779.134 763.261 779.134 763.181V760.041C779.134 759.892 779.192 759.748 779.297 759.642C779.402 759.535 779.544 759.474 779.694 759.471Z" fill="#01476B"/>
<path d="M982.223 780.9C982.221 780.981 982.187 781.057 982.129 781.113C982.071 781.169 981.994 781.2 981.913 781.2H978.293C978.228 781.2 978.164 781.176 978.116 781.131C978.068 781.087 978.038 781.026 978.033 780.96C977.107 770.08 971.28 764.497 960.553 764.21C952.583 764 947.423 771.66 946.023 778.98C944.023 789.47 943.063 813.51 958.333 816.01C967.983 817.59 973.973 812.72 979.493 805.74C979.552 805.666 979.624 805.604 979.707 805.558C979.79 805.512 979.881 805.483 979.975 805.472C980.069 805.462 980.164 805.471 980.255 805.498C980.346 805.525 980.43 805.57 980.503 805.63L983.663 808.28C983.79 808.384 983.875 808.531 983.901 808.694C983.927 808.856 983.892 809.022 983.803 809.16C976.443 820.92 964.633 823.91 951.463 821.93C934.123 819.33 925.643 803.14 927.063 786.8C928.493 770.45 938.793 759.27 955.463 758.19C962.477 757.737 968.74 758.303 974.253 759.89C978.767 761.19 981.29 764.237 981.823 769.03C982.263 772.95 982.397 776.907 982.223 780.9Z" fill="#01476B"/>
<path d="M1106.09 793.089C1106.12 803.659 1110.54 815.999 1122.43 816.859C1131.17 817.489 1136.82 813.309 1141.62 806.679C1141.66 806.628 1141.71 806.585 1141.76 806.553C1141.82 806.521 1141.88 806.501 1141.94 806.493C1142 806.486 1142.07 806.491 1142.13 806.51C1142.19 806.528 1142.24 806.558 1142.29 806.599L1144.39 808.349C1144.47 808.411 1144.52 808.497 1144.54 808.592C1144.55 808.686 1144.54 808.784 1144.49 808.869C1139.1 818.759 1130.28 822.909 1119.15 822.449C1095.86 821.499 1089.89 796.359 1094.95 777.949C1097.8 767.569 1106.15 758.959 1117.19 758.159C1124.98 757.599 1133.28 759.029 1138.84 764.709C1145.27 771.269 1146.79 782.859 1145.67 791.859C1145.65 792.015 1145.58 792.158 1145.46 792.261C1145.35 792.364 1145.2 792.42 1145.04 792.419H1106.75C1106.58 792.419 1106.41 792.49 1106.29 792.616C1106.16 792.741 1106.09 792.912 1106.09 793.089ZM1106.54 786.769L1133.02 786.949C1133.05 786.949 1133.08 786.944 1133.1 786.934C1133.12 786.924 1133.15 786.909 1133.16 786.891C1133.18 786.872 1133.2 786.85 1133.21 786.826C1133.22 786.802 1133.22 786.776 1133.22 786.749L1133.24 784.379C1133.28 778.919 1131.99 773.673 1129.66 769.797C1127.33 765.921 1124.15 763.731 1120.82 763.709L1119.06 763.689C1117.41 763.679 1115.78 764.201 1114.25 765.226C1112.71 766.251 1111.32 767.758 1110.14 769.663C1108.96 771.567 1108.02 773.831 1107.37 776.326C1106.72 778.82 1106.38 781.495 1106.36 784.199L1106.34 786.569C1106.34 786.623 1106.36 786.673 1106.4 786.711C1106.44 786.748 1106.49 786.769 1106.54 786.769Z" fill="#01476B"/>
<path d="M1173.88 764.079C1173.93 764.151 1173.98 764.213 1174.05 764.261C1174.12 764.309 1174.2 764.341 1174.28 764.355C1174.36 764.369 1174.44 764.365 1174.53 764.344C1174.61 764.322 1174.68 764.283 1174.74 764.229C1181.14 758.736 1189.06 756.883 1198.5 758.669C1208.89 760.639 1213.9 769.539 1213.95 779.689C1214.02 791.369 1214.03 804.996 1213.97 820.569C1213.97 820.74 1213.9 820.903 1213.78 821.023C1213.66 821.142 1213.49 821.209 1213.32 821.209H1202.59C1202.44 821.209 1202.29 821.149 1202.17 821.04C1202.06 820.932 1202 820.784 1201.99 820.629C1201.9 815.303 1201.9 802.986 1201.99 783.679C1202.03 776.179 1200.6 768.209 1192.8 765.169C1186.07 762.549 1179.74 765.759 1175.19 770.689C1174.92 770.991 1174.76 771.384 1174.76 771.789L1174.74 820.479C1174.74 820.673 1174.67 820.859 1174.53 820.996C1174.39 821.133 1174.21 821.209 1174.01 821.209L1163.28 821.199C1163.2 821.2 1163.12 821.183 1163.05 821.151C1162.97 821.12 1162.91 821.073 1162.85 821.014C1162.79 820.956 1162.75 820.886 1162.72 820.81C1162.69 820.733 1162.67 820.652 1162.67 820.569C1162.7 819.409 1162.71 804.443 1162.71 775.669C1162.71 771.969 1162.11 768.623 1160.91 765.629C1159.65 762.489 1154.45 761.969 1151.48 762.249C1151.4 762.256 1151.31 762.245 1151.23 762.217C1151.14 762.189 1151.07 762.145 1151.01 762.087C1150.94 762.028 1150.89 761.958 1150.86 761.879C1150.82 761.8 1150.8 761.715 1150.8 761.629V760.039C1150.8 759.885 1150.87 759.736 1150.98 759.626C1151.09 759.515 1151.24 759.452 1151.39 759.449C1157.97 759.356 1162.82 759.383 1165.94 759.529C1169.56 759.703 1172.21 761.219 1173.88 764.079Z" fill="#01476B"/>
<path d="M1288.52 764.651C1288.56 764.729 1288.61 764.797 1288.68 764.849C1288.75 764.901 1288.83 764.935 1288.92 764.949C1289 764.963 1289.09 764.955 1289.17 764.928C1289.26 764.9 1289.33 764.853 1289.39 764.791C1294.49 759.411 1300.74 757.228 1308.14 758.241C1312.6 758.851 1315.58 761.781 1317.32 765.591C1317.39 765.737 1317.4 765.9 1317.37 766.055C1317.33 766.209 1317.24 766.345 1317.11 766.441L1312.59 769.921C1312.48 770.01 1312.33 770.054 1312.19 770.045C1312.04 770.035 1311.91 769.974 1311.8 769.871C1305.75 763.841 1295.04 765.411 1289.85 772.051C1289.61 772.363 1289.48 772.746 1289.48 773.141V820.781C1289.48 820.895 1289.44 821.004 1289.36 821.085C1289.28 821.166 1289.17 821.211 1289.05 821.211H1277.52C1277.42 821.211 1277.33 821.172 1277.25 821.103C1277.18 821.033 1277.14 820.939 1277.14 820.841C1277.16 795.968 1277.16 780.078 1277.14 773.171C1277.13 766.541 1274.96 761.921 1267.39 762.211C1267.31 762.215 1267.23 762.203 1267.16 762.175C1267.08 762.147 1267.01 762.104 1266.96 762.049C1266.9 761.994 1266.85 761.927 1266.82 761.854C1266.79 761.78 1266.77 761.701 1266.77 761.621V760.001C1266.77 759.866 1266.83 759.737 1266.92 759.64C1267.02 759.543 1267.15 759.486 1267.28 759.481C1272.21 759.348 1276.65 759.368 1280.6 759.541C1284.34 759.701 1286.98 761.404 1288.52 764.651Z" fill="#01476B"/>
<path d="M1336.97 792.44C1336.89 792.44 1336.8 792.457 1336.72 792.491C1336.64 792.525 1336.57 792.574 1336.51 792.636C1336.45 792.698 1336.4 792.772 1336.36 792.854C1336.33 792.935 1336.31 793.022 1336.31 793.11C1336.36 803.68 1340.79 816.02 1352.68 816.86C1361.42 817.48 1367.07 813.3 1371.86 806.66C1371.9 806.609 1371.95 806.566 1372 806.534C1372.06 806.502 1372.12 806.481 1372.18 806.474C1372.24 806.466 1372.31 806.472 1372.37 806.49C1372.43 806.508 1372.49 806.539 1372.53 806.58L1374.63 808.33C1374.71 808.392 1374.76 808.478 1374.78 808.572C1374.79 808.667 1374.78 808.765 1374.73 808.85C1369.35 818.75 1360.54 822.91 1349.41 822.46C1326.11 821.53 1320.12 796.4 1325.16 777.98C1328 767.6 1336.34 758.98 1347.38 758.16C1355.17 757.6 1363.47 759.02 1369.04 764.69C1375.47 771.25 1377.01 782.84 1375.9 791.84C1375.88 791.995 1375.81 792.138 1375.69 792.241C1375.58 792.344 1375.43 792.401 1375.27 792.4L1336.97 792.44ZM1336.81 786.75L1363.15 786.98C1363.22 786.98 1363.29 786.953 1363.34 786.904C1363.39 786.856 1363.42 786.79 1363.42 786.72L1363.44 784.38C1363.47 781.681 1363.17 779.006 1362.56 776.507C1361.95 774.009 1361.05 771.735 1359.9 769.817C1358.76 767.898 1357.39 766.372 1355.88 765.326C1354.37 764.28 1352.75 763.734 1351.1 763.72L1349.26 763.7C1347.62 763.685 1345.99 764.202 1344.46 765.222C1342.93 766.241 1341.54 767.743 1340.36 769.641C1339.18 771.539 1338.24 773.796 1337.59 776.284C1336.93 778.772 1336.59 781.441 1336.56 784.14L1336.54 786.48C1336.54 786.552 1336.57 786.62 1336.62 786.671C1336.67 786.721 1336.74 786.75 1336.81 786.75Z" fill="#01476B"/>
<path d="M141.263 760.091V820.571C141.263 820.74 141.197 820.903 141.079 821.023C140.961 821.143 140.8 821.211 140.633 821.211H134.603C134.451 821.21 134.302 821.175 134.166 821.107C134.031 821.04 133.914 820.941 133.823 820.821L130.283 816.231C130.222 816.151 130.145 816.085 130.056 816.038C129.968 815.99 129.87 815.962 129.769 815.954C129.669 815.947 129.567 815.96 129.471 815.994C129.376 816.028 129.288 816.081 129.213 816.151C123.56 821.471 116.083 823.454 106.783 822.101C95.4734 820.461 90.0834 811.721 89.9434 800.911C89.89 796.571 89.8667 787.187 89.8734 772.761C89.8734 772.681 89.62 771.254 89.1134 768.481C88.2634 763.811 84.7534 761.911 80.0134 762.221C79.9355 762.225 79.8577 762.213 79.7845 762.186C79.7113 762.16 79.6442 762.118 79.5873 762.065C79.5304 762.012 79.4847 761.948 79.4531 761.877C79.4215 761.805 79.4046 761.729 79.4034 761.651L79.3734 760.041C79.3707 759.962 79.3839 759.884 79.4123 759.811C79.4406 759.738 79.4835 759.671 79.5384 759.614C79.5934 759.557 79.6592 759.512 79.7322 759.48C79.8051 759.449 79.8837 759.432 79.9634 759.431C83.4234 759.391 87.7534 759.404 92.9534 759.471C100.243 759.561 101.773 765.331 101.903 771.691C102.05 778.544 102.083 787.954 102.003 799.921C101.99 802.227 102.443 804.684 103.363 807.291C106.123 815.121 115.073 818.591 122.303 814.781C124.477 813.641 126.587 812.034 128.633 809.961C128.966 809.628 129.153 809.178 129.153 808.711V759.991C129.153 759.837 129.214 759.689 129.323 759.581C129.432 759.472 129.58 759.411 129.733 759.411H140.583C140.764 759.411 140.937 759.482 141.064 759.61C141.192 759.737 141.263 759.91 141.263 760.091Z" fill="#01476B"/>
<path d="M422.514 821.22H411.864C411.673 821.22 411.489 821.143 411.354 821.006C411.219 820.869 411.144 820.684 411.144 820.49C411.157 795.364 411.15 780.177 411.124 774.93C411.074 766.74 409.454 761.67 399.974 762.25C399.899 762.254 399.824 762.243 399.754 762.217C399.684 762.191 399.619 762.152 399.565 762.1C399.511 762.049 399.468 761.987 399.438 761.918C399.409 761.849 399.393 761.775 399.394 761.7V759.99C399.394 759.836 399.455 759.689 399.563 759.58C399.672 759.471 399.82 759.41 399.974 759.41C404.594 759.437 409.177 759.444 413.724 759.43C421.924 759.4 423.184 766.06 423.214 772.67C423.294 790.99 423.3 806.934 423.234 820.5C423.234 820.691 423.158 820.874 423.023 821.009C422.888 821.144 422.705 821.22 422.514 821.22Z" fill="#01476B"/>
<path d="M887.814 763.751C887.726 763.755 887.638 763.741 887.556 763.71C887.473 763.679 887.398 763.632 887.335 763.571C887.271 763.511 887.22 763.437 887.186 763.357C887.151 763.276 887.134 763.189 887.134 763.101V760.081C887.134 759.989 887.152 759.899 887.187 759.814C887.223 759.73 887.274 759.653 887.339 759.589C887.404 759.525 887.482 759.474 887.567 759.44C887.652 759.406 887.742 759.389 887.834 759.391C894.1 759.464 899.484 759.467 903.984 759.401C910.814 759.301 913.784 762.891 914.514 769.001C914.694 770.501 915.004 772.951 915.004 774.571C915.017 784.391 915.02 799.814 915.014 820.841C915.014 820.939 914.974 821.033 914.902 821.102C914.831 821.172 914.735 821.211 914.634 821.211H898.034C897.944 821.211 897.857 821.175 897.793 821.111C897.73 821.047 897.694 820.961 897.694 820.871C897.714 797.504 897.704 782.277 897.664 775.191C897.664 774.411 897.394 772.594 896.854 769.741C895.894 764.651 892.564 763.511 887.814 763.751Z" fill="#01476B"/>
<path d="M829.074 367.13C829.047 367.644 828.967 367.944 828.834 368.03C828.654 370.7 827.784 373.66 827.404 375.65C822.724 399.504 821.27 423.34 823.044 447.16C827.634 509.02 855.324 567.9 900.724 610.37C933.884 641.384 972.907 661.36 1017.79 670.3C1017.82 670.307 1017.85 670.322 1017.88 670.343C1017.9 670.364 1017.92 670.39 1017.93 670.42C1017.94 670.45 1017.94 670.482 1017.94 670.514C1017.94 670.545 1017.92 670.575 1017.9 670.6C1017.84 670.674 1017.75 670.737 1017.63 670.79C981.594 664.864 947.447 653.314 915.194 636.14C885.68 620.427 860.037 600.08 838.264 575.1C803.254 534.93 780.734 486.57 766.874 435.35C764.487 426.517 761.51 413.424 757.944 396.07C753.124 372.577 742.207 319.714 725.194 237.48C725.178 237.404 725.136 237.336 725.076 237.287C725.016 237.238 724.941 237.211 724.864 237.21H678.794C678.678 237.21 678.567 237.25 678.477 237.323C678.388 237.396 678.327 237.497 678.304 237.61C657.71 337.17 646.694 390.457 645.254 397.47C643.274 407.13 641.617 414.817 640.284 420.53C635.43 441.257 629.484 460.774 622.444 479.08C608.27 515.954 588.127 549.327 562.014 579.2C561.64 578.9 561.497 578.584 561.584 578.25C561.704 577.81 561.764 577.557 561.764 577.49C561.69 527.584 561.727 477.677 561.874 427.77C561.873 427.698 561.853 427.628 561.814 427.57C561.64 427.317 561.43 427.247 561.184 427.36L562.034 423.56C563.547 418.287 564.844 413.067 565.924 407.9C581.757 332.12 597.59 256.337 613.424 180.55C613.449 180.428 613.517 180.319 613.615 180.24C613.714 180.162 613.837 180.119 613.964 180.12H680.834C680.908 180.12 680.983 180.106 681.052 180.077C681.121 180.048 681.184 180.006 681.237 179.953C681.29 179.9 681.332 179.838 681.36 179.768C681.389 179.699 681.404 179.625 681.404 179.55V149.62C681.404 149.459 681.353 149.302 681.258 149.173C681.162 149.043 681.028 148.947 680.874 148.9C659.04 142.067 643.214 128.687 633.394 108.76C615.624 72.6902 630.244 28.5602 665.124 9.37024C679.604 1.40358 695.517 -1.48309 712.864 0.710243C712.939 0.718509 713.009 0.750739 713.064 0.802139C713.119 0.853539 713.156 0.921364 713.17 0.995521C713.183 1.06968 713.172 1.14621 713.139 1.21372C713.105 1.28124 713.051 1.33613 712.984 1.37024C702.91 6.83024 695.24 14.3669 689.974 23.9802C680.254 41.7302 680.984 63.7902 692.214 80.6602C704.444 99.0502 724.274 107.65 745.984 104.88C756.957 103.48 766.83 99.0502 775.604 91.5902C775.639 91.5638 775.681 91.5484 775.725 91.546C775.768 91.5437 775.812 91.5545 775.85 91.577C775.887 91.5996 775.917 91.6329 775.936 91.6727C775.954 91.7125 775.961 91.7569 775.954 91.8002C770.194 119.13 749.584 140.86 722.904 148.73C722.715 148.788 722.551 148.905 722.434 149.063C722.317 149.222 722.253 149.413 722.254 149.61V179.55C722.254 179.701 722.314 179.846 722.421 179.953C722.527 180.06 722.672 180.12 722.824 180.12H789.364C789.53 180.121 789.692 180.178 789.821 180.281C789.95 180.385 790.039 180.529 790.074 180.69L829.074 367.13Z" fill="#98C93C"/>
<path d="M562.034 424.559L561.183 428.359C534.573 530.119 467.994 621.069 368.214 659.929C351.047 666.615 333.757 670.992 316.344 673.059C316.315 673.062 316.288 673.076 316.268 673.096C316.248 673.117 316.235 673.143 316.232 673.172C316.228 673.201 316.234 673.23 316.249 673.254C316.264 673.279 316.287 673.298 316.313 673.309C316.987 673.535 317.7 673.642 318.454 673.629C326.287 673.502 334.147 673.685 342.034 674.179C336.394 674.039 330.864 673.979 325.214 674.669C322.98 674.942 320.644 675.115 318.204 675.189C310.277 675.415 302.947 675.382 296.214 675.089C263.254 673.659 230.263 664.999 202.133 647.759C163.573 624.109 140.053 587.239 133.883 542.859C128.693 505.509 134.294 469.309 157.334 439.279C182.494 406.469 222.224 387.319 261.094 376.319C279.48 371.119 298.444 367.262 317.984 364.749C342.39 361.609 368.574 359.619 396.534 358.779C423.187 357.979 446.417 357.692 466.224 357.919C466.301 357.92 466.378 357.906 466.45 357.878C466.522 357.849 466.588 357.807 466.644 357.753C466.699 357.699 466.744 357.635 466.775 357.564C466.806 357.493 466.822 357.416 466.823 357.339C467.09 343.412 466.773 333.205 465.873 326.719C460.453 287.719 441.127 257.615 407.893 236.409C373.243 214.299 329.004 206.649 288.904 212.359C276.85 214.072 265.32 217.215 254.313 221.789C254.277 221.803 254.235 221.804 254.197 221.79C254.159 221.776 254.127 221.75 254.108 221.716C254.089 221.681 254.084 221.642 254.094 221.605C254.105 221.569 254.129 221.538 254.163 221.519C285.99 199.485 321.07 186.389 359.404 182.229C413.954 176.309 470.533 193.759 513.833 227.849C534.553 244.169 546.713 270.929 553.003 296.409C557.497 314.589 560.253 333.512 561.273 353.179C562.513 376.909 561.974 400.699 562.034 424.559ZM466.224 393.959C454.217 393.899 439.714 394.035 422.714 394.369C390.734 394.999 357.584 397.699 327.324 407.539C266.314 427.389 216.964 484.279 236.834 552.039C245.367 581.139 262.124 603.052 287.104 617.779C323.383 639.149 369.084 639.199 406.234 620.669C430.374 608.639 451.164 588.859 466.604 566.729C466.805 566.442 466.914 566.103 466.914 565.759V394.649C466.913 394.467 466.841 394.293 466.712 394.164C466.583 394.035 466.407 393.961 466.224 393.959Z" fill="#01476B"/>
<path d="M1164.19 624.591C1121.19 635.858 1077.69 637.904 1033.69 630.731C1006.83 626.358 981.774 618.134 958.534 606.061C902.374 576.881 870.384 520.181 851.764 462.101C841.884 431.311 836.294 403.441 829.414 369.781C829.374 369.601 829.181 369.351 828.834 369.031C828.967 368.944 829.047 368.644 829.074 368.131C848.854 286.451 908.684 218.221 989.504 192.261C1081.33 162.771 1179.22 193.181 1240.81 266.571C1242.22 268.244 1243.28 269.611 1244 270.671C1244.03 270.703 1244.05 270.745 1244.05 270.788C1244.04 270.831 1244.03 270.872 1243.99 270.901C1243.96 270.93 1243.92 270.945 1243.88 270.944C1243.83 270.942 1243.79 270.923 1243.76 270.891C1203.69 238.281 1153.4 222.921 1102.28 228.841C1029.64 237.251 969.424 286.961 943.544 354.711C901.364 465.161 961.314 593.021 1077.46 623.151C1105.62 630.451 1134.53 630.931 1164.19 624.591Z" fill="#01476B"/>
<path d="M828.833 369.031C829.18 369.351 829.373 369.601 829.413 369.781C836.293 403.441 841.884 431.311 851.764 462.101C870.384 520.181 902.373 576.881 958.533 606.061C981.773 618.135 1006.83 626.358 1033.69 630.731C1077.69 637.905 1121.19 635.858 1164.19 624.591C1172.57 622.271 1180.82 619.625 1188.93 616.651C1208.51 609.478 1226.5 599.221 1242.91 585.881C1243.27 585.588 1243.59 585.431 1243.86 585.411C1243.95 585.404 1244.05 585.424 1244.13 585.467C1244.21 585.511 1244.27 585.577 1244.32 585.656C1244.36 585.736 1244.38 585.827 1244.37 585.916C1244.37 586.006 1244.33 586.091 1244.27 586.161C1238.9 592.901 1234.19 598.375 1230.13 602.581C1195.85 638.235 1154.74 661.071 1106.79 671.091C1106.3 671.198 1105.6 671.201 1104.69 671.101L1090.66 672.711C1090.42 672.738 1090.19 672.788 1089.96 672.861C1086.93 673.861 1083.47 673.351 1080.49 673.801C1077.03 674.321 1074.85 674.568 1073.95 674.541C1064.62 674.295 1055.24 674.415 1045.82 674.901C1043.88 675.161 1041.87 674.998 1039.79 674.411C1038.43 673.658 1037.19 673.591 1036.06 674.211L1017.63 671.791C1017.75 671.738 1017.84 671.675 1017.9 671.601C1017.92 671.576 1017.94 671.546 1017.94 671.515C1017.94 671.483 1017.94 671.451 1017.93 671.421C1017.92 671.391 1017.9 671.365 1017.88 671.344C1017.85 671.323 1017.82 671.308 1017.79 671.301C972.907 662.361 933.884 642.385 900.724 611.371C855.324 568.901 827.633 510.021 823.043 448.161C821.27 424.341 822.723 400.505 827.403 376.651C827.783 374.661 828.653 371.701 828.833 369.031Z" fill="#00AD4C"/>
<path d="M562.013 580.201C532.967 612.215 498.097 636.088 457.403 651.821C429.45 662.635 400.603 669.444 370.863 672.251C367.373 672.581 363.913 673.121 360.943 673.251C354.563 673.544 348.26 673.854 342.033 674.181C334.147 673.688 326.287 673.504 318.453 673.631C317.7 673.644 316.987 673.538 316.313 673.311C316.286 673.301 316.264 673.282 316.249 673.257C316.234 673.232 316.228 673.203 316.231 673.174C316.235 673.146 316.248 673.119 316.268 673.099C316.288 673.078 316.315 673.065 316.343 673.061C333.757 670.994 351.047 666.618 368.213 659.931C467.993 621.071 534.573 530.121 561.183 428.361C561.43 428.248 561.64 428.318 561.813 428.571C561.852 428.629 561.873 428.699 561.873 428.771C561.727 478.678 561.69 528.584 561.763 578.491C561.763 578.558 561.703 578.811 561.583 579.251C561.497 579.584 561.64 579.901 562.013 580.201Z" fill="#00AD4C"/>
</svg>
