<svg width="1377" height="824" viewBox="0 0 1377 824" fill="none" xmlns="http://www.w3.org/2000/svg">
<path d="M1079.93 800.01C1079.96 799.966 1079.99 799.928 1080.04 799.898C1080.08 799.869 1080.13 799.85 1080.18 799.841C1080.23 799.833 1080.28 799.835 1080.33 799.849C1080.38 799.862 1080.42 799.887 1080.46 799.92L1082.88 801.93C1082.9 801.949 1082.91 801.971 1082.92 801.994C1082.92 802.017 1082.92 802.04 1082.91 802.06C1077.54 813.447 1069 820.42 1057.29 822.98C1052.46 824.04 1044.21 824.14 1039.22 823.22C999.254 815.9 996.284 759.72 1025.49 738.74C1032.61 733.634 1040.68 731.34 1049.7 731.86C1059.43 732.43 1068.53 734.61 1075.65 740.73C1081.48 745.73 1079.84 755.31 1080.42 761.64C1080.43 761.709 1080.42 761.778 1080.4 761.843C1080.38 761.909 1080.35 761.969 1080.3 762.02C1080.26 762.071 1080.2 762.111 1080.14 762.139C1080.08 762.167 1080.01 762.181 1079.94 762.18L1077.83 762.2C1077.68 762.2 1077.54 762.146 1077.42 762.049C1077.31 761.951 1077.24 761.817 1077.21 761.67C1076.29 756.064 1074.33 751.134 1071.31 746.88C1064.13 736.73 1049.74 735.45 1038.82 739.57C1027.62 743.79 1022.02 755.22 1020.34 766.58C1018.59 778.47 1018.98 792.29 1025.11 803.16C1030.77 813.193 1039.29 818.22 1050.68 818.24C1063.84 818.26 1073.5 811.01 1079.93 800.01Z" fill="black"/>
<path d="M0.0134109 820.94L36.4834 735C36.5603 734.818 36.6895 734.664 36.8549 734.555C37.0204 734.447 37.2147 734.389 37.4134 734.39H40.1234C40.3598 734.389 40.5913 734.459 40.7888 734.591C40.9862 734.723 41.1409 734.91 41.2334 735.13C57.7534 775.336 67.6134 799.3 70.8134 807.02C73.2934 812.99 76.7834 817.56 83.6434 818.19C83.8245 818.207 83.9926 818.291 84.1146 818.424C84.2367 818.557 84.304 818.73 84.3034 818.91V820.07C84.3032 820.463 84.1572 820.842 83.8935 821.136C83.6297 821.429 83.2666 821.615 82.8734 821.66C70.9134 822.973 62.4601 818.29 57.5134 807.61C56.9201 806.336 55.4968 802.71 53.2434 796.73C53.1848 796.577 53.0817 796.445 52.9478 796.352C52.8139 796.259 52.6554 796.21 52.4934 796.21H17.3534C17.194 796.209 17.0378 796.257 16.9044 796.346C16.771 796.435 16.6663 796.561 16.6034 796.71L6.30342 820.96C6.27381 821.031 6.22381 821.091 6.15974 821.134C6.09568 821.177 6.02041 821.2 5.94342 821.2H0.183409C0.152976 821.199 0.123252 821.19 0.0967239 821.175C0.0701954 821.16 0.0476383 821.139 0.0309738 821.114C0.0143093 821.088 0.00401676 821.059 0.000959774 821.029C-0.00209722 820.999 0.00217369 820.968 0.0134109 820.94ZM19.0434 790.28C19.02 790.331 19.01 790.388 19.0142 790.445C19.0184 790.502 19.0368 790.556 19.0676 790.604C19.0985 790.652 19.1408 790.691 19.1907 790.718C19.2406 790.745 19.2966 790.76 19.3534 790.76L49.9034 790.97C49.959 790.969 50.0135 790.955 50.0623 790.928C50.111 790.901 50.1525 790.863 50.1831 790.817C50.2137 790.771 50.2324 790.717 50.2377 790.662C50.243 790.607 50.2347 790.551 50.2134 790.5L35.1934 754.22C35.1675 754.16 35.1248 754.108 35.0703 754.072C35.0159 754.035 34.9521 754.015 34.8866 754.014C34.8212 754.013 34.7568 754.031 34.7012 754.066C34.6456 754.1 34.6013 754.15 34.5734 754.21L19.0434 790.28Z" fill="black"/>
<path d="M366.604 734.44C370.704 734.393 374.904 734.397 379.204 734.45C388.064 734.56 390.014 739.22 390.014 747.42C390.007 773.447 390.007 797.837 390.014 820.59C390.014 820.754 389.948 820.912 389.832 821.028C389.716 821.145 389.558 821.21 389.394 821.21H378.654C378.455 821.21 378.264 821.131 378.123 820.99C377.983 820.85 377.904 820.659 377.904 820.46C377.917 775.293 377.914 750.803 377.894 746.99C377.894 746.75 377.604 745.373 377.024 742.86C375.774 737.42 371.254 737.33 366.654 737.43C366.583 737.431 366.513 737.418 366.448 737.392C366.382 737.366 366.323 737.328 366.273 737.278C366.222 737.229 366.182 737.17 366.155 737.105C366.128 737.04 366.114 736.97 366.114 736.9V734.94C366.114 734.809 366.165 734.683 366.257 734.59C366.348 734.496 366.473 734.443 366.604 734.44Z" fill="black"/>
<path d="M616.753 816.86C616.85 816.847 616.949 816.855 617.043 816.884C617.136 816.913 617.223 816.962 617.296 817.027C617.37 817.092 617.429 817.173 617.47 817.263C617.511 817.353 617.533 817.451 617.533 817.55V820.44C617.533 820.642 617.453 820.837 617.308 820.981C617.164 821.125 616.969 821.207 616.763 821.21C605.843 821.29 599.66 821.227 598.213 821.02C591.863 820.11 589.753 814.79 589.743 809.14C589.683 786.153 589.673 761.453 589.713 735.04C589.713 734.875 589.78 734.718 589.898 734.602C590.016 734.485 590.176 734.42 590.343 734.42H606.313C606.502 734.42 606.682 734.495 606.816 734.628C606.949 734.761 607.023 734.942 607.023 735.13C606.997 776.37 606.993 799.797 607.013 805.41C607.023 811.76 608.923 817.81 616.753 816.86Z" fill="black"/>
<path d="M678.934 738.79C678.836 738.804 678.736 738.797 678.641 738.769C678.547 738.741 678.459 738.692 678.384 738.627C678.309 738.561 678.249 738.481 678.207 738.39C678.166 738.299 678.144 738.2 678.144 738.1V735.21C678.144 735.007 678.224 734.813 678.369 734.669C678.513 734.524 678.708 734.442 678.914 734.44C689.834 734.36 696.017 734.42 697.464 734.62C703.814 735.53 705.934 740.85 705.944 746.5C706.017 769.486 706.04 794.186 706.014 820.6C706.014 820.764 705.947 820.922 705.829 821.038C705.711 821.154 705.551 821.22 705.384 821.22L689.414 821.23C689.225 821.23 689.045 821.155 688.911 821.022C688.778 820.888 688.704 820.708 688.704 820.52C688.71 779.28 688.7 755.853 688.674 750.24C688.664 743.89 686.754 737.84 678.934 738.79Z" fill="black"/>
<path d="M911.114 737.992C907.573 734.234 901.962 733.77 898.581 736.955C895.201 740.14 895.332 745.769 898.873 749.527C902.415 753.285 908.026 753.75 911.406 750.564C914.787 747.379 914.656 741.75 911.114 737.992Z" fill="black"/>
<path d="M421.207 740.968C418.941 737.369 414.6 736.029 411.511 737.975C408.421 739.92 407.754 744.414 410.02 748.013C412.286 751.611 416.628 752.951 419.717 751.006C422.806 749.061 423.473 744.567 421.207 740.968Z" fill="black"/>
<path d="M212.103 759.42H220.033C220.206 759.42 220.371 759.352 220.493 759.23C220.615 759.108 220.684 758.943 220.684 758.77V748.11C220.683 747.762 220.807 747.425 221.033 747.16L226.923 740.09C227.049 739.94 227.206 739.819 227.382 739.736C227.558 739.653 227.75 739.61 227.943 739.61H232.113C232.283 739.61 232.446 739.678 232.566 739.798C232.686 739.918 232.753 740.081 232.753 740.25V758.92C232.753 759.05 232.805 759.175 232.897 759.267C232.989 759.359 233.114 759.41 233.243 759.41H248.033C248.166 759.41 248.293 759.464 248.387 759.56C248.481 759.655 248.533 759.785 248.533 759.92V764.49C248.533 764.62 248.483 764.745 248.393 764.837C248.303 764.929 248.181 764.98 248.053 764.98H233.353C233.192 764.98 233.037 765.045 232.922 765.159C232.808 765.273 232.743 765.429 232.743 765.59C232.75 786.037 232.753 799.204 232.753 805.09C232.743 812.01 235.064 817.26 242.904 816.92C245.777 816.794 248.373 816.07 250.693 814.75C250.921 814.621 251.189 814.578 251.446 814.629C251.703 814.681 251.933 814.823 252.094 815.03L252.733 815.87C252.848 816.018 252.931 816.187 252.978 816.368C253.026 816.549 253.036 816.737 253.009 816.922C252.982 817.107 252.918 817.284 252.821 817.444C252.724 817.603 252.595 817.742 252.443 817.85C248.223 820.897 243.24 822.454 237.493 822.52C227.293 822.65 220.843 817.27 220.763 806.9C220.69 797.84 220.67 784.06 220.703 765.56C220.703 765.404 220.641 765.254 220.531 765.143C220.42 765.032 220.27 764.97 220.113 764.97H212.103C211.96 764.97 211.823 764.913 211.722 764.812C211.62 764.711 211.563 764.574 211.563 764.43V759.96C211.563 759.817 211.62 759.68 211.722 759.578C211.823 759.477 211.96 759.42 212.103 759.42Z" fill="black"/>
<path d="M1225.28 764.43V759.96C1225.28 759.817 1225.34 759.68 1225.44 759.578C1225.54 759.477 1225.68 759.42 1225.82 759.42H1233.74C1233.92 759.42 1234.08 759.352 1234.2 759.23C1234.33 759.108 1234.39 758.942 1234.39 758.77V748.12C1234.39 747.772 1234.52 747.435 1234.74 747.17L1240.62 740.1C1240.75 739.952 1240.91 739.832 1241.08 739.751C1241.26 739.67 1241.45 739.629 1241.64 739.63L1245.81 739.62C1245.98 739.62 1246.15 739.688 1246.27 739.808C1246.39 739.928 1246.45 740.09 1246.45 740.26V758.92C1246.45 759.05 1246.51 759.175 1246.6 759.267C1246.69 759.358 1246.81 759.41 1246.94 759.41H1261.72C1261.86 759.41 1261.98 759.464 1262.08 759.56C1262.17 759.655 1262.22 759.785 1262.22 759.92V764.49C1262.22 764.62 1262.17 764.745 1262.08 764.837C1261.99 764.929 1261.87 764.98 1261.74 764.98H1247.05C1246.89 764.98 1246.74 765.044 1246.62 765.159C1246.51 765.273 1246.44 765.428 1246.44 765.59C1246.45 786.023 1246.46 799.18 1246.46 805.06C1246.45 811.98 1248.77 817.22 1256.6 816.88C1259.48 816.753 1262.07 816.03 1264.38 814.71C1264.61 814.579 1264.88 814.535 1265.13 814.587C1265.39 814.638 1265.62 814.782 1265.78 814.99L1266.42 815.83C1266.54 815.978 1266.62 816.147 1266.67 816.328C1266.72 816.509 1266.73 816.697 1266.7 816.882C1266.67 817.067 1266.61 817.244 1266.51 817.404C1266.41 817.563 1266.29 817.701 1266.13 817.81C1261.92 820.857 1256.94 822.413 1251.19 822.48C1241 822.61 1234.55 817.23 1234.47 806.87C1234.4 797.817 1234.38 784.047 1234.41 765.56C1234.41 765.483 1234.4 765.406 1234.37 765.334C1234.34 765.263 1234.3 765.198 1234.24 765.143C1234.19 765.088 1234.12 765.045 1234.05 765.015C1233.98 764.985 1233.9 764.97 1233.82 764.97H1225.82C1225.68 764.97 1225.54 764.913 1225.44 764.812C1225.34 764.711 1225.28 764.573 1225.28 764.43Z" fill="black"/>
<path d="M157.334 803.1H158.944C159.137 803.1 159.324 803.165 159.474 803.285C159.625 803.405 159.731 803.573 159.774 803.76C161.621 811.88 166.771 816.234 175.224 816.82C180.444 817.18 187.064 816.93 190.514 812.57C193.214 809.16 192.394 804.36 189.304 801.55C182.184 795.08 171.174 794.6 161.994 786.88C154.894 780.9 155.094 769.52 161.844 763.33C164.877 760.55 169.084 758.884 174.464 758.33C183.284 757.42 201.504 758.23 201.384 770.63C201.384 770.677 201.477 772.427 201.664 775.88C201.679 776.268 201.55 776.647 201.302 776.946C201.055 777.244 200.705 777.44 200.321 777.496C199.938 777.551 199.547 777.463 199.224 777.248C198.901 777.033 198.67 776.706 198.574 776.33C196.681 768.437 191.557 764.23 183.204 763.71C180.444 763.544 177.837 763.75 175.384 764.33C169.884 765.65 166.374 771.28 169.374 776.54C170.581 778.654 172.817 780.58 176.084 782.32C182.694 785.84 200.024 789.99 202.754 799.84C205.804 810.83 199.744 819.53 188.914 821.58C181.007 823.087 173.431 822.8 166.184 820.72C161.551 819.387 158.554 816.574 157.194 812.28C157.147 812.128 157.121 811.97 157.114 811.81L156.754 803.7C156.75 803.623 156.762 803.546 156.789 803.473C156.816 803.4 156.858 803.334 156.913 803.278C156.967 803.222 157.032 803.177 157.105 803.147C157.177 803.116 157.255 803.1 157.334 803.1Z" fill="black"/>
<path d="M274.763 764.66C274.799 764.738 274.854 764.806 274.923 764.858C274.991 764.91 275.072 764.944 275.157 764.958C275.243 764.971 275.331 764.964 275.414 764.937C275.497 764.909 275.572 764.862 275.633 764.8C280.733 759.42 286.983 757.236 294.383 758.25C298.843 758.86 301.823 761.79 303.563 765.6C303.629 765.746 303.644 765.909 303.606 766.063C303.568 766.218 303.479 766.354 303.353 766.45L298.833 769.93C298.718 770.019 298.574 770.063 298.429 770.053C298.284 770.044 298.147 769.983 298.043 769.88C291.993 763.85 281.283 765.42 276.093 772.05C275.853 772.361 275.723 772.744 275.723 773.14L275.713 820.78C275.713 820.894 275.668 821.003 275.587 821.084C275.507 821.164 275.397 821.21 275.283 821.21H263.763C263.663 821.21 263.566 821.171 263.495 821.101C263.423 821.032 263.383 820.938 263.383 820.84C263.397 795.966 263.397 780.076 263.383 773.17C263.383 766.54 261.213 761.92 253.643 762.21C253.563 762.214 253.483 762.202 253.408 762.174C253.333 762.146 253.265 762.103 253.207 762.048C253.149 761.993 253.103 761.926 253.071 761.853C253.04 761.779 253.023 761.7 253.023 761.62V760C253.023 759.865 253.077 759.736 253.172 759.639C253.267 759.542 253.396 759.485 253.533 759.48C258.46 759.346 262.9 759.37 266.853 759.55C270.593 759.71 273.23 761.413 274.763 764.66Z" fill="black"/>
<path d="M313.434 774.04C313.427 770.173 313.777 767.413 314.484 765.76C318.184 757.04 336.324 757.44 344.084 758.77C355.454 760.71 359.374 772.43 359.474 782.43C359.547 789.67 359.557 802.36 359.504 820.5C359.504 820.688 359.43 820.869 359.299 821.002C359.168 821.135 358.989 821.21 358.804 821.21H353.194C353.032 821.21 352.872 821.172 352.727 821.099C352.581 821.026 352.453 820.92 352.354 820.79L348.264 815.48C348.228 815.435 348.184 815.399 348.133 815.373C348.083 815.347 348.027 815.332 347.971 815.329C347.914 815.326 347.857 815.336 347.804 815.357C347.751 815.377 347.703 815.409 347.664 815.45C342.164 821.28 335.434 822.79 327.584 822.37C316.144 821.76 309.214 813.36 310.264 801.72C311.464 788.35 330.014 785.6 340.214 785.64C341.947 785.647 344.157 785.637 346.844 785.61C346.989 785.607 347.127 785.548 347.23 785.443C347.333 785.339 347.391 785.198 347.394 785.05C347.574 777.99 346.324 766.37 338.424 764.32C330.104 762.16 321.894 764.73 319.794 774.11C319.753 774.286 319.654 774.444 319.512 774.556C319.37 774.669 319.195 774.73 319.014 774.73H314.124C313.941 774.73 313.765 774.657 313.636 774.528C313.506 774.398 313.434 774.223 313.434 774.04ZM346.734 791.23C343.721 791.077 340.967 791.133 338.474 791.4C331.054 792.2 322.184 796.35 322.964 805.17C323.204 807.85 324.07 810.157 325.564 812.09C328.664 816.12 335.624 817.4 339.964 815.44C342.764 814.173 345.17 811.927 347.184 808.7C347.368 808.408 347.465 808.072 347.464 807.73L347.374 791.89C347.371 791.719 347.304 791.556 347.185 791.433C347.066 791.31 346.905 791.238 346.734 791.23Z" fill="black"/>
<path d="M441.023 774.74C440.933 774.74 440.843 774.722 440.759 774.687C440.676 774.653 440.6 774.602 440.536 774.538C440.471 774.474 440.421 774.398 440.386 774.314C440.351 774.23 440.333 774.14 440.333 774.05C440.327 770.177 440.677 767.413 441.383 765.76C445.073 757.03 463.233 757.42 470.993 758.75C482.373 760.68 486.303 772.41 486.413 782.42C486.487 789.66 486.503 802.357 486.463 820.51C486.463 820.698 486.39 820.879 486.258 821.012C486.127 821.145 485.949 821.22 485.763 821.22L480.143 821.23C479.982 821.23 479.822 821.192 479.676 821.119C479.531 821.046 479.403 820.94 479.303 820.81L475.213 815.5C475.178 815.455 475.134 815.419 475.083 815.393C475.033 815.367 474.977 815.352 474.92 815.349C474.863 815.346 474.807 815.356 474.754 815.376C474.701 815.397 474.653 815.429 474.613 815.47C469.113 821.3 462.373 822.82 454.523 822.4C443.073 821.8 436.133 813.4 437.173 801.75C438.373 788.37 456.933 785.61 467.133 785.64C468.873 785.646 471.087 785.637 473.773 785.61C473.919 785.607 474.057 785.547 474.16 785.443C474.262 785.338 474.321 785.198 474.323 785.05C474.503 777.98 473.243 766.35 465.333 764.31C457.003 762.15 448.793 764.73 446.693 774.11C446.653 774.286 446.553 774.443 446.412 774.556C446.27 774.669 446.094 774.73 445.913 774.73L441.023 774.74ZM473.753 791.26C470.733 791.093 467.973 791.136 465.473 791.39C458.033 792.14 449.123 796.25 449.853 805.1C450.073 807.787 450.927 810.103 452.413 812.05C455.503 816.1 462.463 817.43 466.823 815.49C469.637 814.237 472.063 812 474.103 808.78C474.293 808.486 474.394 808.146 474.393 807.8V791.93C474.394 791.757 474.327 791.591 474.208 791.466C474.089 791.342 473.926 791.268 473.753 791.26Z" fill="black"/>
<path d="M518.444 764.24C524.83 758.74 532.75 756.883 542.204 758.67C552.594 760.63 557.604 769.53 557.664 779.68C557.737 791.36 557.75 804.987 557.704 820.56C557.704 820.732 557.635 820.898 557.513 821.019C557.391 821.141 557.226 821.21 557.054 821.21H546.324C546.166 821.21 546.015 821.149 545.903 821.041C545.791 820.932 545.726 820.785 545.724 820.63C545.624 815.303 545.617 802.986 545.704 783.68C545.744 776.18 544.304 768.21 536.504 765.17C529.774 762.55 523.444 765.77 518.894 770.7C518.617 771.002 518.464 771.394 518.464 771.8V820.49C518.464 820.683 518.387 820.869 518.25 821.006C518.113 821.143 517.927 821.22 517.734 821.22H507.004C506.923 821.22 506.843 821.203 506.768 821.172C506.693 821.14 506.626 821.093 506.569 821.035C506.512 820.976 506.467 820.907 506.437 820.83C506.407 820.754 506.392 820.672 506.394 820.59C506.42 819.43 506.427 804.46 506.414 775.68C506.414 771.98 505.814 768.633 504.614 765.64C503.354 762.5 498.144 761.99 495.174 762.27C495.087 762.277 494.999 762.266 494.917 762.238C494.835 762.21 494.759 762.165 494.695 762.107C494.631 762.049 494.58 761.978 494.546 761.899C494.511 761.821 494.493 761.736 494.494 761.65V760.06C494.494 759.905 494.556 759.757 494.666 759.646C494.776 759.536 494.926 759.472 495.084 759.47C501.657 759.37 506.507 759.393 509.634 759.54C513.254 759.713 515.904 761.23 517.584 764.09C517.625 764.162 517.682 764.224 517.751 764.271C517.819 764.319 517.897 764.351 517.979 764.365C518.061 764.379 518.145 764.376 518.225 764.354C518.305 764.332 518.38 764.293 518.444 764.24Z" fill="black"/>
<path d="M625.534 801.11H629.154C629.307 801.11 629.455 801.163 629.572 801.26C629.689 801.357 629.768 801.491 629.794 801.64C631.944 813.39 640.454 817.66 651.434 815.9C657.107 814.993 659.774 811.73 659.434 806.11C659.084 800.45 640.974 794.41 637.494 792.64C635.407 791.58 632.99 790.017 630.244 787.95C623.784 783.1 622.414 774.35 626.284 767.5C632.144 757.14 649.664 757.2 660.024 758.87C662.357 759.243 664.754 760.017 667.214 761.19C674.214 764.52 673.414 770.67 673.624 778.63C673.626 778.706 673.613 778.783 673.585 778.854C673.557 778.926 673.515 778.991 673.461 779.046C673.407 779.101 673.342 779.145 673.27 779.175C673.199 779.205 673.121 779.22 673.044 779.22H669.474C669.317 779.22 669.164 779.171 669.037 779.079C668.909 778.988 668.814 778.858 668.764 778.71C668.164 776.937 667.814 775.907 667.714 775.62C665.4 768.807 660.907 765.043 654.234 764.33C646.894 763.54 640.014 766.11 641.124 774.79C641.554 778.14 646.264 780.89 648.924 781.97C654.694 784.31 663.174 787.54 669.444 791.94C675.097 795.913 677.234 801.4 675.854 808.4C673.914 818.18 662.314 821.87 652.954 822.35C644.724 822.77 626.904 822.82 625.344 811.58C624.97 808.9 624.83 805.607 624.924 801.7C624.926 801.543 624.992 801.392 625.106 801.282C625.22 801.172 625.374 801.11 625.534 801.11Z" fill="black"/>
<path d="M755.134 784.28C755.464 774.5 752.994 762.24 739.984 764.47C734.074 765.48 731.044 770.39 730.134 775.8C730.124 775.845 730.099 775.887 730.063 775.916C730.026 775.945 729.98 775.96 729.934 775.96H722.594C722.557 775.96 722.521 775.952 722.488 775.937C722.454 775.923 722.425 775.9 722.401 775.873C722.377 775.845 722.36 775.813 722.35 775.778C722.34 775.742 722.338 775.706 722.344 775.67C722.55 774.47 722.754 772.31 722.954 769.19C723.334 763.41 727.434 760.18 733.194 759.14C740.327 757.853 746.704 757.673 752.324 758.6C767.284 761.06 772.564 771.61 772.664 786.17C772.744 798.583 772.747 810.146 772.674 820.86C772.674 820.952 772.637 821.041 772.571 821.107C772.505 821.173 772.416 821.21 772.324 821.21H761.714C761.546 821.21 761.38 821.171 761.229 821.097C761.078 821.022 760.946 820.914 760.844 820.78L756.864 815.61C756.817 815.551 756.759 815.504 756.692 815.471C756.626 815.438 756.553 815.42 756.478 815.418C756.404 815.416 756.33 815.431 756.262 815.46C756.194 815.49 756.133 815.534 756.084 815.59C753.11 818.983 750.134 821.003 747.154 821.65C740.72 823.056 734.597 822.726 728.784 820.66C722.944 818.58 718.324 812.75 718.004 806.2C717.604 797.87 720.254 791.59 728.244 788.42C736.374 785.2 745.924 784.68 754.514 784.87C754.674 784.872 754.828 784.812 754.944 784.702C755.06 784.591 755.128 784.44 755.134 784.28ZM754.564 791.24C744.284 790.58 735.434 793.67 736.004 805.83C736.324 812.73 740.854 817.71 747.944 814.91C750.95 813.723 753.287 811.353 754.954 807.8C755.079 807.523 755.144 807.223 755.144 806.92V791.85C755.144 791.693 755.084 791.542 754.976 791.428C754.868 791.315 754.72 791.247 754.564 791.24Z" fill="black"/>
<path d="M779.694 759.47C786.594 759.337 791.884 759.377 795.564 759.59C799.017 759.79 801.63 761.2 803.404 763.82C803.445 763.882 803.498 763.935 803.56 763.975C803.622 764.016 803.692 764.043 803.766 764.055C803.839 764.067 803.914 764.064 803.986 764.046C804.058 764.028 804.125 763.995 804.184 763.95C808.354 760.75 812.854 758.5 818.154 758.11C825.94 757.55 832.617 759.8 838.184 764.86C838.298 764.963 838.447 765.02 838.601 765.018C838.755 765.016 838.902 764.956 839.014 764.85C843.154 760.99 847.374 758.64 853.064 758.22C870.594 756.92 880.354 764.15 880.284 782.28C880.257 790.12 880.251 802.97 880.264 820.83C880.264 820.931 880.224 821.028 880.153 821.099C880.081 821.17 879.985 821.21 879.884 821.21H863.264C863.174 821.21 863.087 821.173 863.023 821.108C862.96 821.042 862.924 820.953 862.924 820.86C862.904 813.447 862.9 800.133 862.914 780.92C862.914 776.41 862.064 770.51 858.684 767.39C853.864 762.92 846.244 765.05 841.994 769.28C841.885 769.389 841.809 769.526 841.772 769.677C841.735 769.828 841.739 769.988 841.784 770.14C842.904 773.64 843.467 776.317 843.474 778.17C843.507 787.817 843.514 802.043 843.494 820.85C843.494 820.946 843.456 821.037 843.388 821.105C843.321 821.172 843.229 821.21 843.134 821.21H826.764C826.599 821.21 826.442 821.146 826.325 821.031C826.209 820.917 826.144 820.762 826.144 820.6C826.144 794.847 826.144 781.287 826.144 779.92C826.174 767.49 817.714 759.48 806.544 769.45C806.403 769.576 806.296 769.734 806.233 769.911C806.17 770.088 806.153 770.277 806.184 770.46L806.994 775.38C807 775.433 807.004 775.487 807.004 775.54L807.014 820.6C807.014 820.762 806.95 820.917 806.835 821.031C806.721 821.146 806.566 821.21 806.404 821.21H790.044C789.951 821.21 789.862 821.173 789.796 821.108C789.731 821.042 789.694 820.953 789.694 820.86C789.714 813.807 789.714 799.327 789.694 777.42C789.687 775.853 789.54 773.91 789.254 771.59C788.494 765.58 785.714 763.36 779.754 763.76C779.674 763.766 779.595 763.755 779.52 763.728C779.444 763.701 779.376 763.659 779.318 763.605C779.259 763.551 779.213 763.485 779.181 763.412C779.15 763.339 779.134 763.26 779.134 763.18V760.04C779.134 759.891 779.192 759.747 779.297 759.641C779.402 759.534 779.544 759.473 779.694 759.47Z" fill="black"/>
<path d="M982.224 780.9C982.221 780.981 982.187 781.057 982.13 781.113C982.072 781.169 981.994 781.2 981.914 781.2H978.294C978.228 781.2 978.165 781.176 978.117 781.131C978.068 781.087 978.039 781.026 978.034 780.96C977.107 770.08 971.28 764.497 960.554 764.21C952.584 764 947.424 771.66 946.024 778.98C944.024 789.47 943.064 813.51 958.334 816.01C967.984 817.59 973.974 812.72 979.494 805.74C979.552 805.666 979.625 805.604 979.708 805.558C979.79 805.512 979.882 805.483 979.976 805.472C980.07 805.462 980.165 805.471 980.256 805.498C980.346 805.525 980.431 805.57 980.504 805.63L983.664 808.28C983.791 808.384 983.876 808.531 983.901 808.694C983.927 808.856 983.892 809.022 983.804 809.16C976.444 820.92 964.634 823.91 951.464 821.93C934.124 819.33 925.644 803.14 927.064 786.8C928.494 770.45 938.794 759.27 955.464 758.19C962.477 757.737 968.741 758.303 974.254 759.89C978.767 761.19 981.29 764.237 981.824 769.03C982.264 772.95 982.397 776.907 982.224 780.9Z" fill="black"/>
<path d="M1106.09 793.089C1106.12 803.659 1110.54 815.999 1122.43 816.859C1131.17 817.489 1136.82 813.309 1141.62 806.679C1141.66 806.628 1141.71 806.585 1141.76 806.553C1141.82 806.521 1141.88 806.501 1141.94 806.493C1142 806.486 1142.07 806.491 1142.13 806.51C1142.19 806.528 1142.25 806.558 1142.29 806.599L1144.39 808.349C1144.47 808.411 1144.52 808.497 1144.54 808.592C1144.55 808.686 1144.54 808.784 1144.49 808.869C1139.1 818.759 1130.28 822.909 1119.15 822.449C1095.86 821.499 1089.89 796.359 1094.95 777.949C1097.8 767.569 1106.15 758.959 1117.19 758.159C1124.98 757.599 1133.28 759.029 1138.84 764.709C1145.27 771.269 1146.79 782.859 1145.67 791.859C1145.65 792.015 1145.58 792.158 1145.46 792.261C1145.35 792.364 1145.2 792.42 1145.04 792.419H1106.75C1106.58 792.419 1106.41 792.49 1106.29 792.616C1106.16 792.741 1106.09 792.912 1106.09 793.089ZM1106.54 786.769L1133.02 786.949C1133.05 786.949 1133.08 786.944 1133.1 786.934C1133.12 786.924 1133.15 786.909 1133.16 786.891C1133.18 786.872 1133.2 786.85 1133.21 786.826C1133.22 786.802 1133.22 786.776 1133.22 786.749L1133.24 784.379C1133.28 778.919 1131.99 773.673 1129.66 769.797C1127.33 765.921 1124.15 763.731 1120.82 763.709L1119.06 763.689C1117.41 763.679 1115.78 764.201 1114.25 765.226C1112.72 766.251 1111.32 767.758 1110.14 769.663C1108.96 771.567 1108.02 773.831 1107.37 776.326C1106.72 778.82 1106.38 781.495 1106.36 784.199L1106.34 786.569C1106.34 786.623 1106.36 786.673 1106.4 786.711C1106.44 786.748 1106.49 786.769 1106.54 786.769Z" fill="black"/>
<path d="M1173.88 764.079C1173.93 764.151 1173.98 764.213 1174.05 764.261C1174.12 764.309 1174.2 764.341 1174.28 764.355C1174.36 764.369 1174.44 764.365 1174.53 764.344C1174.61 764.322 1174.68 764.283 1174.74 764.229C1181.14 758.736 1189.06 756.883 1198.5 758.669C1208.89 760.639 1213.9 769.539 1213.95 779.689C1214.02 791.369 1214.03 804.996 1213.97 820.569C1213.97 820.74 1213.9 820.903 1213.78 821.023C1213.66 821.142 1213.49 821.209 1213.32 821.209H1202.59C1202.44 821.209 1202.29 821.149 1202.17 821.04C1202.06 820.932 1202 820.784 1201.99 820.629C1201.9 815.303 1201.9 802.986 1201.99 783.679C1202.03 776.179 1200.6 768.209 1192.8 765.169C1186.07 762.549 1179.74 765.759 1175.19 770.689C1174.92 770.991 1174.76 771.384 1174.76 771.789L1174.74 820.479C1174.74 820.673 1174.67 820.859 1174.53 820.996C1174.39 821.133 1174.21 821.209 1174.01 821.209L1163.28 821.199C1163.2 821.2 1163.12 821.183 1163.05 821.151C1162.97 821.12 1162.91 821.073 1162.85 821.014C1162.79 820.956 1162.75 820.886 1162.72 820.81C1162.69 820.733 1162.67 820.652 1162.67 820.569C1162.7 819.409 1162.71 804.443 1162.71 775.669C1162.71 771.969 1162.11 768.623 1160.91 765.629C1159.65 762.489 1154.45 761.969 1151.48 762.249C1151.4 762.256 1151.31 762.245 1151.23 762.217C1151.14 762.189 1151.07 762.145 1151.01 762.087C1150.94 762.028 1150.89 761.958 1150.86 761.879C1150.82 761.8 1150.8 761.715 1150.8 761.629V760.039C1150.8 759.885 1150.87 759.736 1150.98 759.626C1151.09 759.515 1151.24 759.452 1151.39 759.449C1157.97 759.356 1162.82 759.383 1165.94 759.529C1169.56 759.703 1172.21 761.219 1173.88 764.079Z" fill="black"/>
<path d="M1288.52 764.65C1288.56 764.728 1288.61 764.796 1288.68 764.848C1288.75 764.9 1288.83 764.934 1288.92 764.948C1289 764.962 1289.09 764.954 1289.17 764.927C1289.26 764.899 1289.33 764.852 1289.39 764.79C1294.49 759.41 1300.74 757.227 1308.14 758.24C1312.6 758.85 1315.58 761.78 1317.32 765.59C1317.39 765.736 1317.4 765.899 1317.37 766.054C1317.33 766.208 1317.24 766.344 1317.11 766.44L1312.59 769.92C1312.48 770.009 1312.33 770.053 1312.19 770.044C1312.04 770.035 1311.91 769.973 1311.8 769.87C1305.75 763.84 1295.04 765.41 1289.85 772.05C1289.61 772.362 1289.48 772.745 1289.48 773.14V820.78C1289.48 820.894 1289.44 821.003 1289.36 821.084C1289.28 821.165 1289.17 821.21 1289.05 821.21H1277.52C1277.42 821.21 1277.33 821.171 1277.25 821.102C1277.18 821.032 1277.14 820.938 1277.14 820.84C1277.16 795.967 1277.16 780.077 1277.14 773.17C1277.13 766.54 1274.96 761.92 1267.39 762.21C1267.31 762.214 1267.23 762.202 1267.16 762.174C1267.08 762.146 1267.01 762.103 1266.96 762.048C1266.9 761.993 1266.85 761.926 1266.82 761.853C1266.79 761.779 1266.77 761.7 1266.77 761.62V760C1266.77 759.865 1266.83 759.736 1266.92 759.639C1267.02 759.542 1267.15 759.485 1267.28 759.48C1272.21 759.347 1276.65 759.367 1280.6 759.54C1284.34 759.7 1286.98 761.403 1288.52 764.65Z" fill="black"/>
<path d="M1336.97 792.44C1336.89 792.44 1336.8 792.457 1336.72 792.491C1336.64 792.525 1336.57 792.574 1336.51 792.636C1336.45 792.698 1336.4 792.772 1336.36 792.854C1336.33 792.935 1336.31 793.022 1336.31 793.11C1336.36 803.68 1340.79 816.02 1352.68 816.86C1361.42 817.48 1367.07 813.3 1371.86 806.66C1371.9 806.609 1371.95 806.566 1372 806.534C1372.06 806.502 1372.12 806.481 1372.18 806.474C1372.24 806.466 1372.31 806.472 1372.37 806.49C1372.43 806.508 1372.49 806.539 1372.53 806.58L1374.63 808.33C1374.71 808.392 1374.76 808.478 1374.78 808.572C1374.79 808.667 1374.78 808.765 1374.73 808.85C1369.35 818.75 1360.54 822.91 1349.41 822.46C1326.11 821.53 1320.12 796.4 1325.16 777.98C1328 767.6 1336.34 758.98 1347.38 758.16C1355.17 757.6 1363.47 759.02 1369.04 764.69C1375.47 771.25 1377.01 782.84 1375.9 791.84C1375.88 791.995 1375.81 792.138 1375.69 792.241C1375.58 792.344 1375.43 792.401 1375.27 792.4L1336.97 792.44ZM1336.81 786.75L1363.15 786.98C1363.22 786.98 1363.29 786.953 1363.34 786.904C1363.39 786.856 1363.42 786.79 1363.42 786.72L1363.44 784.38C1363.47 781.681 1363.17 779.006 1362.56 776.507C1361.95 774.009 1361.05 771.735 1359.9 769.817C1358.76 767.898 1357.39 766.372 1355.88 765.326C1354.37 764.28 1352.75 763.734 1351.1 763.72L1349.26 763.7C1347.62 763.685 1345.99 764.202 1344.46 765.222C1342.93 766.241 1341.54 767.743 1340.36 769.641C1339.18 771.539 1338.24 773.796 1337.59 776.284C1336.93 778.772 1336.59 781.441 1336.56 784.14L1336.54 786.48C1336.54 786.552 1336.57 786.62 1336.62 786.671C1336.67 786.721 1336.74 786.75 1336.81 786.75Z" fill="black"/>
<path d="M141.264 760.09V820.57C141.264 820.739 141.197 820.902 141.079 821.022C140.961 821.142 140.801 821.21 140.634 821.21H134.604C134.452 821.209 134.302 821.174 134.167 821.106C134.031 821.039 133.914 820.941 133.824 820.82L130.284 816.23C130.223 816.15 130.145 816.085 130.057 816.037C129.968 815.989 129.871 815.961 129.77 815.953C129.669 815.946 129.568 815.959 129.472 815.993C129.376 816.027 129.288 816.08 129.214 816.15C123.561 821.47 116.084 823.453 106.784 822.1C95.4738 820.46 90.0838 811.72 89.9438 800.91C89.8905 796.57 89.8672 787.186 89.8739 772.76C89.8739 772.68 89.6205 771.253 89.1139 768.48C88.2639 763.81 84.7539 761.91 80.0139 762.22C79.936 762.224 79.8582 762.212 79.785 762.185C79.7118 762.159 79.6447 762.117 79.5878 762.064C79.5309 762.011 79.4852 761.947 79.4536 761.876C79.422 761.804 79.4051 761.728 79.4039 761.65L79.3739 760.04C79.3712 759.961 79.3844 759.883 79.4128 759.81C79.4411 759.737 79.484 759.67 79.5389 759.613C79.5939 759.556 79.6597 759.511 79.7327 759.479C79.8056 759.448 79.8842 759.431 79.9639 759.43C83.4239 759.39 87.7539 759.403 92.9539 759.47C100.244 759.56 101.774 765.33 101.904 771.69C102.051 778.543 102.084 787.953 102.004 799.92C101.991 802.226 102.444 804.683 103.364 807.29C106.124 815.12 115.074 818.59 122.304 814.78C124.477 813.64 126.587 812.033 128.634 809.96C128.967 809.627 129.154 809.177 129.154 808.71V759.99C129.154 759.836 129.215 759.688 129.324 759.58C129.432 759.471 129.58 759.41 129.734 759.41H140.584C140.764 759.41 140.937 759.481 141.065 759.609C141.192 759.736 141.264 759.909 141.264 760.09Z" fill="black"/>
<path d="M422.514 821.22H411.864C411.673 821.22 411.489 821.143 411.354 821.006C411.219 820.869 411.144 820.684 411.144 820.49C411.157 795.364 411.15 780.177 411.124 774.93C411.074 766.74 409.454 761.67 399.974 762.25C399.899 762.254 399.824 762.243 399.754 762.217C399.684 762.191 399.619 762.152 399.565 762.1C399.511 762.049 399.468 761.987 399.438 761.918C399.409 761.849 399.393 761.775 399.394 761.7V759.99C399.394 759.836 399.455 759.689 399.563 759.58C399.672 759.471 399.82 759.41 399.974 759.41C404.594 759.437 409.177 759.444 413.724 759.43C421.924 759.4 423.184 766.06 423.214 772.67C423.294 790.99 423.3 806.934 423.234 820.5C423.234 820.691 423.158 820.874 423.023 821.009C422.888 821.144 422.705 821.22 422.514 821.22Z" fill="black"/>
<path d="M887.814 763.75C887.726 763.754 887.638 763.74 887.556 763.709C887.473 763.678 887.398 763.631 887.335 763.57C887.271 763.51 887.22 763.436 887.186 763.356C887.151 763.275 887.134 763.188 887.134 763.1V760.08C887.134 759.988 887.152 759.898 887.187 759.813C887.223 759.729 887.274 759.652 887.339 759.588C887.404 759.524 887.482 759.473 887.567 759.439C887.652 759.405 887.742 759.388 887.834 759.39C894.1 759.463 899.484 759.466 903.984 759.4C910.814 759.3 913.784 762.89 914.514 769C914.694 770.5 915.004 772.95 915.004 774.57C915.017 784.39 915.02 799.813 915.014 820.84C915.014 820.938 914.974 821.032 914.902 821.101C914.831 821.171 914.735 821.21 914.634 821.21H898.034C897.944 821.21 897.857 821.174 897.793 821.11C897.73 821.046 897.694 820.96 897.694 820.87C897.714 797.503 897.704 782.276 897.664 775.19C897.664 774.41 897.394 772.593 896.854 769.74C895.894 764.65 892.564 763.51 887.814 763.75Z" fill="black"/>
<path d="M829.074 367.13C829.047 367.644 828.967 367.944 828.834 368.03C828.654 370.7 827.784 373.66 827.404 375.65C822.724 399.504 821.27 423.34 823.044 447.16C827.634 509.02 855.324 567.9 900.724 610.37C933.884 641.384 972.907 661.36 1017.79 670.3C1017.82 670.307 1017.85 670.322 1017.88 670.343C1017.9 670.364 1017.92 670.39 1017.93 670.42C1017.94 670.45 1017.94 670.482 1017.94 670.514C1017.94 670.545 1017.92 670.575 1017.9 670.6C1017.84 670.674 1017.75 670.737 1017.63 670.79C981.594 664.864 947.447 653.314 915.194 636.14C885.68 620.427 860.037 600.08 838.264 575.1C803.254 534.93 780.734 486.57 766.874 435.35C764.487 426.517 761.51 413.424 757.944 396.07C753.124 372.577 742.207 319.714 725.194 237.48C725.178 237.404 725.136 237.336 725.076 237.287C725.016 237.238 724.941 237.211 724.864 237.21H678.794C678.678 237.21 678.567 237.25 678.477 237.323C678.388 237.396 678.327 237.497 678.304 237.61C657.71 337.17 646.694 390.457 645.254 397.47C643.274 407.13 641.617 414.817 640.284 420.53C635.43 441.257 629.484 460.774 622.444 479.08C608.27 515.954 588.127 549.327 562.014 579.2C561.64 578.9 561.497 578.584 561.584 578.25C561.704 577.81 561.764 577.557 561.764 577.49C561.69 527.584 561.727 477.677 561.874 427.77C561.873 427.698 561.853 427.628 561.814 427.57C561.64 427.317 561.43 427.247 561.184 427.36L562.034 423.56C563.547 418.287 564.844 413.067 565.924 407.9C581.757 332.12 597.59 256.337 613.424 180.55C613.449 180.428 613.517 180.319 613.615 180.24C613.714 180.162 613.837 180.119 613.964 180.12H680.834C680.908 180.12 680.983 180.106 681.052 180.077C681.121 180.048 681.184 180.006 681.237 179.953C681.29 179.9 681.332 179.838 681.36 179.768C681.389 179.699 681.404 179.625 681.404 179.55V149.62C681.404 149.459 681.353 149.302 681.258 149.173C681.162 149.043 681.028 148.947 680.874 148.9C659.04 142.067 643.214 128.687 633.394 108.76C615.624 72.6902 630.244 28.5602 665.124 9.37024C679.604 1.40358 695.517 -1.48309 712.864 0.710243C712.939 0.718509 713.009 0.750739 713.064 0.802139C713.119 0.853539 713.156 0.921364 713.17 0.995521C713.183 1.06968 713.172 1.14621 713.139 1.21372C713.105 1.28124 713.051 1.33613 712.984 1.37024C702.91 6.83024 695.24 14.3669 689.974 23.9802C680.254 41.7302 680.984 63.7902 692.214 80.6602C704.444 99.0502 724.274 107.65 745.984 104.88C756.957 103.48 766.83 99.0502 775.604 91.5902C775.639 91.5638 775.681 91.5484 775.725 91.546C775.768 91.5437 775.812 91.5545 775.85 91.577C775.887 91.5996 775.917 91.6329 775.936 91.6727C775.954 91.7125 775.961 91.7569 775.954 91.8002C770.194 119.13 749.584 140.86 722.904 148.73C722.715 148.788 722.551 148.905 722.434 149.063C722.317 149.222 722.253 149.413 722.254 149.61V179.55C722.254 179.701 722.314 179.846 722.421 179.953C722.527 180.06 722.672 180.12 722.824 180.12H789.364C789.53 180.121 789.692 180.178 789.821 180.281C789.95 180.385 790.039 180.529 790.074 180.69L829.074 367.13Z" fill="black"/>
<path d="M562.034 424.56L561.183 428.36C534.573 530.12 467.994 621.07 368.214 659.93C351.047 666.616 333.757 670.993 316.344 673.06C316.315 673.063 316.288 673.077 316.268 673.097C316.248 673.118 316.235 673.144 316.232 673.173C316.228 673.202 316.234 673.231 316.249 673.255C316.264 673.28 316.287 673.299 316.313 673.31C316.987 673.536 317.7 673.643 318.454 673.63C326.287 673.503 334.147 673.686 342.034 674.18C336.394 674.04 330.864 673.98 325.214 674.67C322.98 674.943 320.644 675.116 318.204 675.19C310.277 675.416 302.947 675.383 296.214 675.09C263.254 673.66 230.263 665 202.133 647.76C163.573 624.11 140.053 587.24 133.883 542.86C128.693 505.51 134.294 469.31 157.334 439.28C182.494 406.47 222.224 387.32 261.094 376.32C279.48 371.12 298.444 367.263 317.984 364.75C342.39 361.61 368.574 359.62 396.534 358.78C423.187 357.98 446.417 357.693 466.224 357.92C466.301 357.921 466.378 357.907 466.45 357.879C466.522 357.85 466.588 357.808 466.644 357.754C466.699 357.7 466.744 357.636 466.775 357.565C466.806 357.494 466.822 357.417 466.823 357.34C467.09 343.413 466.773 333.206 465.873 326.72C460.453 287.72 441.127 257.616 407.893 236.41C373.243 214.3 329.004 206.65 288.904 212.36C276.85 214.073 265.32 217.216 254.313 221.79C254.277 221.804 254.235 221.805 254.197 221.791C254.159 221.777 254.127 221.751 254.108 221.717C254.089 221.682 254.084 221.643 254.094 221.606C254.105 221.57 254.129 221.539 254.163 221.52C285.99 199.486 321.07 186.39 359.404 182.23C413.954 176.31 470.533 193.76 513.833 227.85C534.553 244.17 546.713 270.93 553.003 296.41C557.497 314.59 560.253 333.513 561.273 353.18C562.513 376.91 561.974 400.7 562.034 424.56ZM466.224 393.96C454.217 393.9 439.714 394.036 422.714 394.37C390.734 395 357.584 397.7 327.324 407.54C266.314 427.39 216.964 484.28 236.834 552.04C245.367 581.14 262.124 603.053 287.104 617.78C323.383 639.15 369.084 639.2 406.234 620.67C430.374 608.64 451.164 588.86 466.604 566.73C466.805 566.443 466.914 566.104 466.914 565.76V394.65C466.913 394.468 466.841 394.294 466.712 394.165C466.583 394.036 466.407 393.962 466.224 393.96Z" fill="black"/>
<path d="M1164.19 624.59C1121.19 635.857 1077.69 637.903 1033.69 630.73C1006.83 626.357 981.773 618.133 958.533 606.06C902.373 576.88 870.384 520.18 851.764 462.1C841.884 431.31 836.293 403.44 829.413 369.78C829.373 369.6 829.18 369.35 828.833 369.03C828.967 368.943 829.047 368.643 829.073 368.13C848.853 286.45 908.684 218.22 989.504 192.26C1081.33 162.77 1179.22 193.18 1240.81 266.57C1242.22 268.243 1243.28 269.61 1244 270.67C1244.03 270.702 1244.05 270.744 1244.05 270.787C1244.04 270.83 1244.03 270.871 1243.99 270.9C1243.96 270.929 1243.92 270.944 1243.88 270.943C1243.83 270.941 1243.79 270.922 1243.76 270.89C1203.69 238.28 1153.4 222.92 1102.28 228.84C1029.64 237.25 969.423 286.96 943.543 354.71C901.363 465.16 961.313 593.02 1077.46 623.15C1105.62 630.45 1134.53 630.93 1164.19 624.59Z" fill="black"/>
<path d="M828.833 369.03C829.18 369.35 829.373 369.6 829.413 369.78C836.293 403.44 841.884 431.31 851.764 462.1C870.384 520.18 902.373 576.88 958.533 606.06C981.773 618.134 1006.83 626.357 1033.69 630.73C1077.69 637.904 1121.19 635.857 1164.19 624.59C1172.57 622.27 1180.82 619.624 1188.93 616.65C1208.51 609.477 1226.5 599.22 1242.91 585.88C1243.27 585.587 1243.59 585.43 1243.86 585.41C1243.95 585.403 1244.05 585.423 1244.13 585.466C1244.21 585.51 1244.27 585.576 1244.32 585.655C1244.36 585.735 1244.38 585.826 1244.37 585.915C1244.37 586.005 1244.33 586.09 1244.27 586.16C1238.9 592.9 1234.19 598.374 1230.13 602.58C1195.85 638.234 1154.74 661.07 1106.79 671.09C1106.3 671.197 1105.6 671.2 1104.69 671.1L1090.66 672.71C1090.42 672.737 1090.19 672.787 1089.96 672.86C1086.93 673.86 1083.47 673.35 1080.49 673.8C1077.03 674.32 1074.85 674.567 1073.95 674.54C1064.62 674.294 1055.24 674.414 1045.82 674.9C1043.88 675.16 1041.87 674.997 1039.79 674.41C1038.43 673.657 1037.19 673.59 1036.06 674.21L1017.63 671.79C1017.75 671.737 1017.84 671.674 1017.9 671.6C1017.92 671.575 1017.94 671.545 1017.94 671.514C1017.94 671.482 1017.94 671.45 1017.93 671.42C1017.92 671.39 1017.9 671.364 1017.88 671.343C1017.85 671.322 1017.82 671.307 1017.79 671.3C972.907 662.36 933.884 642.384 900.724 611.37C855.324 568.9 827.633 510.02 823.043 448.16C821.27 424.34 822.723 400.504 827.403 376.65C827.783 374.66 828.653 371.7 828.833 369.03Z" fill="black"/>
<path d="M562.014 580.2C532.967 612.214 498.097 636.087 457.404 651.82C429.45 662.634 400.604 669.444 370.864 672.25C367.374 672.58 363.914 673.12 360.944 673.25C354.564 673.544 348.26 673.854 342.034 674.18C334.147 673.687 326.287 673.504 318.454 673.63C317.7 673.644 316.987 673.537 316.314 673.31C316.287 673.3 316.264 673.281 316.249 673.256C316.235 673.231 316.228 673.202 316.232 673.174C316.235 673.145 316.248 673.118 316.268 673.098C316.289 673.077 316.315 673.064 316.344 673.06C333.757 670.994 351.047 666.617 368.214 659.93C467.994 621.07 534.574 530.12 561.184 428.36C561.43 428.247 561.64 428.317 561.814 428.57C561.853 428.628 561.874 428.698 561.874 428.77C561.727 478.677 561.69 528.584 561.764 578.49C561.764 578.557 561.704 578.81 561.584 579.25C561.497 579.584 561.64 579.9 562.014 580.2Z" fill="black"/>
</svg>
